<?xml version="1.0" standalone="no"?>
<!DOCTYPE svg PUBLIC "-//W3C//DTD SVG 20010904//EN"
 "http://www.w3.org/2000/svg">
<svg version="1.0" xmlns="http://www.w3.org/2000/svg"
 width="32px" height="32px" viewBox="0 0 450.000000 450.000000"
 preserveAspectRatio="xMidYMid meet">

<g transform="translate(0.000000,450.000000) scale(0.100000,-0.100000)" fill="currentColor" stroke="none">
<path d="M2324 4400 c-50 -20 -35 -30 43 -30 69 0 193 -10 308 -25 38 -5 38
-4 -15 16 -117 43 -280 62 -336 39z"/>
<path d="M1930 4395 c-8 -2 -48 -9 -89 -15 -95 -16 -218 -56 -354 -115 -110
-48 -136 -67 -56 -40 24 8 132 32 239 54 107 23 216 47 241 55 49 15 129 53
129 61 0 5 -84 5 -110 0z"/>
<path d="M2228 4259 c-19 -30 -50 -67 -69 -83 l-33 -28 -22 25 c-12 14 -28 49
-35 77 l-13 52 -46 -5 c-107 -12 -147 -18 -185 -28 -22 -6 -57 -15 -77 -20
-34 -9 -37 -12 -26 -29 10 -16 10 -23 -4 -36 -24 -24 -52 -11 -46 21 3 14 2
25 -3 25 -13 0 -188 -65 -250 -93 -152 -67 -230 -111 -214 -119 8 -5 15 -18
15 -29 0 -15 -6 -20 -22 -17 -16 2 -23 10 -22 25 l1 22 -40 -22 c-22 -12 -46
-32 -54 -44 -8 -11 -24 -24 -36 -27 -12 -3 -45 -27 -74 -53 -28 -26 -81 -74
-116 -105 -72 -64 -202 -206 -196 -213 3 -2 36 24 74 59 39 35 72 62 74 60 2
-2 -4 -13 -14 -24 -14 -15 -15 -20 -4 -21 8 0 4 -4 -7 -9 -12 -5 -47 -44 -78
-88 -49 -70 -56 -86 -56 -127 0 -65 -12 -81 -71 -95 -28 -7 -53 -18 -56 -26
-10 -26 22 -67 74 -93 29 -14 53 -32 53 -38 0 -21 -26 -15 -75 18 -44 30 -47
30 -95 18 -27 -7 -52 -10 -56 -7 -12 13 8 28 37 28 34 0 39 16 7 26 -47 15
-148 -142 -201 -311 -36 -117 -52 -198 -38 -203 16 -5 14 -22 -3 -22 -16 0
-42 -181 -33 -235 3 -20 1 -37 -5 -41 -14 -9 -4 -350 16 -509 37 -300 113
-549 209 -683 18 -26 39 -59 46 -73 14 -27 56 -53 71 -44 12 8 -41 85 -58 85
-8 0 -12 6 -9 15 7 17 -38 104 -67 127 -19 15 -19 19 -6 43 l15 27 10 -38 c5
-22 28 -65 49 -96 34 -51 43 -58 72 -58 l34 0 -22 45 c-12 24 -20 46 -17 48 2
2 34 2 72 -1 51 -3 67 -8 67 -19 0 -13 -10 -14 -56 -8 l-56 7 26 -38 c14 -21
26 -42 26 -46 0 -5 -18 -8 -40 -8 -22 0 -40 -3 -40 -6 0 -3 12 -21 26 -40 22
-28 33 -34 64 -34 171 0 195 -49 95 -194 l-44 -65 102 -104 c133 -136 242
-223 260 -208 16 13 37 -4 37 -29 0 -8 36 -38 83 -67 248 -155 537 -259 827
-298 102 -14 198 -19 173 -8 -8 3 -13 25 -13 59 0 39 -4 56 -15 60 -20 8 -19
24 1 24 11 0 14 5 10 16 -3 9 -6 24 -6 34 0 13 -5 17 -20 13 -15 -4 -20 0 -20
16 0 21 19 28 34 14 4 -4 15 -8 24 -8 15 0 17 -11 13 -90 l-3 -90 30 38 30 37
26 -31 26 -31 0 70 c0 69 0 70 -30 75 -16 4 -37 4 -45 1 -9 -4 -15 0 -15 8 0
22 10 28 29 16 21 -13 91 -2 91 13 0 6 5 7 10 4 6 -4 7 -11 4 -17 -6 -10 28
-7 109 8 59 12 10 83 -55 78 -175 -12 -432 13 -565 57 -31 10 -46 29 -23 29 5
0 27 16 49 35 55 50 66 46 63 -20 -1 -22 29 39 32 65 2 8 7 27 13 41 11 25 14
39 29 124 4 22 10 45 14 50 3 6 1 26 -6 45 l-12 35 -11 -30 c-6 -16 -15 -37
-20 -45 -5 -9 -11 -29 -15 -46 -5 -21 -18 -37 -44 -52 -50 -28 -156 -132 -135
-132 11 0 98 60 87 60 -4 0 9 9 31 20 47 24 45 24 45 2 0 -18 -63 -82 -82 -82
-5 0 -7 -4 -4 -9 4 -5 -12 -24 -34 -41 l-41 -32 -77 27 c-42 14 -123 49 -179
76 -55 27 -104 49 -108 49 -3 0 -23 -11 -43 -25 -71 -48 -102 -26 -102 75 0
46 -3 51 -45 87 -51 42 -54 49 -24 58 11 4 33 19 48 33 16 15 51 45 79 66 46
36 81 87 74 109 -1 5 2 5 9 2 6 -4 17 2 25 13 14 20 16 20 102 -30 48 -28 89
-53 91 -55 3 -2 -17 -23 -42 -48 -26 -25 -47 -48 -47 -52 0 -5 -13 -17 -29
-27 -30 -20 -31 -46 -3 -46 22 0 122 -34 122 -41 0 -4 -7 -12 -15 -19 -8 -7
-15 -18 -15 -25 0 -7 -7 -15 -15 -19 -8 -3 -15 -11 -15 -18 0 -6 -12 -25 -27
-40 -15 -15 -21 -28 -15 -28 17 0 113 91 123 118 5 13 12 21 17 18 4 -2 19 4
32 15 21 15 22 19 7 19 -9 0 -25 4 -35 9 -9 6 -38 17 -64 27 -27 9 -48 18 -48
20 0 9 41 44 52 44 9 0 9 3 1 11 -8 8 -5 18 14 35 14 13 32 24 39 24 8 0 11 6
8 15 -4 8 -13 15 -22 15 -15 0 -147 85 -191 124 -13 12 -57 52 -98 90 -79 75
-94 76 -37 2 20 -26 34 -49 32 -52 -2 -2 -18 2 -36 8 -17 7 -34 9 -38 5 -10
-9 -9 -60 1 -118 l7 -47 -28 5 c-16 3 -36 7 -44 11 -8 3 -27 6 -42 7 -25 1
-28 -3 -28 -31 0 -17 5 -55 10 -84 6 -29 8 -56 5 -59 -3 -2 -30 19 -59 48 -30
30 -53 47 -53 40 3 -24 -18 -25 -21 -1 -2 12 2 22 8 22 7 0 -6 21 -27 48 -52
63 -73 94 -73 109 0 7 17 24 38 37 46 28 156 134 158 152 1 7 17 26 34 41 52
47 31 57 -25 13 -32 -26 -57 -39 -69 -36 -11 3 -26 0 -34 -6 -11 -10 -16 -8
-24 6 -7 12 -20 17 -42 15 -17 -2 -36 0 -43 4 -19 12 -23 -35 -7 -102 14 -61
12 -101 -5 -101 -16 0 -171 298 -171 329 0 7 -7 14 -15 17 -19 8 -20 24 -1 24
20 0 76 49 76 66 0 8 5 14 11 14 7 0 17 7 24 16 12 17 56 21 147 12 42 -3 51
-9 78 -46 31 -44 53 -59 28 -19 -46 71 -126 318 -143 442 -12 82 -14 342 -3
388 5 23 18 81 28 130 14 67 25 94 47 117 15 17 31 30 35 30 3 0 -3 -28 -14
-62 -47 -148 -60 -229 -62 -383 -1 -141 0 -150 18 -147 11 2 17 -1 14 -10 -3
-7 -11 -13 -19 -13 -15 0 -15 -32 2 -97 6 -25 14 -35 23 -32 21 8 30 -28 11
-43 -16 -11 -16 -15 0 -62 9 -28 20 -51 24 -51 4 0 8 -13 8 -28 0 -36 102
-242 120 -242 16 0 17 14 3 41 -9 15 -2 13 32 -11 75 -51 133 -50 73 2 -14 12
-25 26 -25 30 0 5 -11 24 -25 42 -14 19 -23 40 -20 47 3 8 -6 26 -20 41 -14
15 -25 32 -25 37 0 5 -5 22 -12 38 -6 15 -10 35 -9 45 1 9 -3 19 -9 23 -5 3
-10 15 -10 26 0 10 -4 19 -8 19 -5 0 -9 6 -10 13 -1 6 -3 31 -5 55 -2 23 -7
45 -10 49 -11 11 13 42 28 37 8 -4 15 -1 15 5 0 6 8 11 18 12 11 0 12 2 4 6
-8 3 -10 9 -3 17 6 7 4 18 -6 31 -13 17 -15 17 -9 2 3 -10 2 -16 -3 -13 -4 3
-17 -1 -27 -9 -26 -19 -31 -19 -37 5 -4 17 -1 20 21 18 22 -2 27 1 25 17 -1
11 4 23 10 27 6 4 8 10 4 15 -4 4 -18 1 -30 -6 -12 -8 -19 -10 -14 -6 4 5 0
19 -8 32 -13 20 -13 23 -1 23 8 0 16 -6 19 -12 2 -7 8 -9 13 -5 5 5 1 15 -10
23 -16 11 -17 16 -6 29 9 11 10 19 2 27 -6 6 -8 17 -5 24 3 8 -1 14 -11 14 -9
0 -16 5 -16 10 0 6 4 10 9 10 5 0 8 8 7 18 -2 9 1 31 6 47 5 17 9 45 10 63 1
24 5 31 16 27 12 -4 14 2 9 36 -4 32 -2 39 9 35 8 -3 14 1 14 10 0 8 -4 13 -8
10 -10 -6 -10 40 0 50 5 4 8 16 8 26 0 10 7 18 15 18 9 0 15 9 15 24 0 30 27
96 40 96 5 0 7 7 4 15 -4 8 -1 15 5 15 6 0 11 -4 11 -8 0 -4 17 -8 38 -9 20 0
31 2 23 5 -24 8 -46 37 -43 55 4 19 13 21 30 7 8 -6 7 -5 0 4 -10 10 -26 12
-67 6 -65 -8 -98 -41 -133 -132 -22 -56 -61 -92 -71 -65 -3 8 -11 4 -22 -10
-9 -13 -22 -23 -29 -23 -7 0 -25 -13 -41 -30 -16 -16 -31 -28 -33 -25 -3 3
-11 0 -19 -6 -15 -13 -43 4 -43 28 0 8 -4 11 -10 8 -5 -3 -10 -19 -10 -36 0
-22 -5 -29 -20 -29 -11 0 -20 5 -20 10 0 6 -13 10 -30 10 -16 0 -30 -4 -30 -9
0 -5 -2 -16 -5 -23 -4 -10 7 -18 37 -27 24 -6 76 -24 116 -39 72 -27 73 -27
67 -57 -24 -113 -31 -336 -11 -368 16 -26 -11 -40 -41 -20 -21 14 -23 14 -23
-1 0 -18 -25 -22 -36 -5 -3 6 -19 9 -35 7 -32 -5 -34 -1 -17 39 6 15 10 36 9
45 -1 10 5 28 13 40 9 12 16 29 16 37 0 33 -40 -25 -63 -92 -27 -77 -39 -92
-62 -84 -12 5 -14 16 -11 44 3 21 5 38 6 38 1 0 3 18 4 40 1 22 6 51 10 65 l7
25 -18 -24 c-19 -26 -45 -110 -47 -150 -1 -14 -11 -36 -23 -49 -13 -14 -23
-28 -23 -32 0 -13 93 -11 101 2 6 9 11 10 19 2 7 -7 26 -8 54 -3 24 4 68 10
98 13 l55 5 17 -78 c9 -44 23 -84 31 -91 17 -14 11 -32 -9 -24 -7 3 -32 -17
-57 -45 l-45 -50 -79 -3 c-44 -1 -85 1 -92 5 -7 4 -15 34 -19 66 -7 61 -18 90
-30 78 -24 -24 50 -304 127 -481 22 -49 37 -91 35 -94 -8 -8 -60 84 -106 188
-70 157 -119 320 -135 445 -10 79 -12 81 -74 104 -68 25 -83 39 -79 76 2 18
-4 31 -18 41 -18 12 -25 11 -67 -16 -53 -34 -67 -37 -67 -15 0 8 18 24 40 35
22 11 40 22 40 25 0 2 -18 14 -40 26 -45 25 -46 27 -26 55 14 18 15 18 25 -9
9 -23 15 -26 37 -21 22 6 26 4 21 -9 -11 -28 19 -26 66 5 27 17 54 28 63 24
21 -8 10 -23 -37 -46 -21 -11 -39 -22 -39 -25 0 -2 9 -9 20 -15 16 -9 29 -6
64 15 l43 25 8 103 c8 126 36 285 70 401 14 48 22 92 19 98 -4 6 0 16 8 22 19
14 71 129 66 147 -1 8 1 14 5 14 4 0 31 41 60 90 137 233 304 420 498 557 55
39 57 42 62 97 6 52 3 62 -33 129 -22 41 -40 76 -40 78 0 3 27 4 60 3 35 -1
66 3 72 9 19 19 41 14 92 -19 l49 -30 66 20 c37 11 104 29 150 40 46 11 86 22
88 25 5 5 -17 114 -27 134 -5 10 -11 4 -20 -17 -7 -17 -19 -31 -26 -31 -8 0
-14 3 -14 6 0 13 53 94 61 94 22 0 89 -42 89 -55 0 -20 -7 -19 -37 5 -15 11
-28 18 -31 16 -8 -8 31 -111 46 -122 8 -6 12 -16 8 -22 -3 -5 0 -12 6 -15 7
-2 0 -8 -17 -11 -231 -51 -315 -90 -277 -128 8 -8 30 -4 81 16 79 31 141 44
141 29 0 -25 -42 -61 -77 -66 -40 -7 -83 -31 -83 -47 0 -6 25 2 57 15 31 14
58 23 60 21 2 -2 -6 -25 -18 -50 -23 -49 -19 -73 6 -40 21 27 50 88 47 97 -2
5 3 7 10 5 7 -3 15 -18 19 -35 3 -17 18 -52 33 -76 14 -25 26 -53 26 -61 0 -9
5 -16 10 -16 10 0 19 -17 34 -67 6 -20 2 -25 -33 -39 -40 -16 -69 -51 -33 -40
9 3 58 14 109 25 51 11 112 29 135 41 l43 20 -70 -5 c-38 -3 -79 -8 -90 -11
-17 -4 -22 2 -34 40 -7 27 -19 46 -27 46 -21 0 -41 47 -26 62 16 16 15 38 -1
38 -21 0 -43 31 -50 68 -8 39 1 40 75 12 28 -11 54 -17 57 -13 3 3 0 8 -6 10
-7 3 -13 11 -13 19 0 8 -10 14 -22 14 -38 0 -103 27 -106 43 -3 14 49 37 84
37 6 0 19 10 28 23 14 19 18 20 27 7 10 -14 23 -14 113 -3 123 15 265 16 371
3 44 -5 96 -11 115 -14 67 -8 256 -58 340 -91 92 -35 259 -116 301 -146 41
-29 162 -6 193 37 12 15 17 17 27 7 18 -18 39 -16 39 2 0 14 3 13 25 -1 14 -9
33 -14 43 -12 15 4 21 -3 28 -32 11 -40 -1 -111 -32 -192 -18 -45 -18 -47 0
-67 16 -18 17 -21 3 -21 -9 0 -18 4 -21 8 -3 5 -27 5 -53 1 -26 -4 -54 -8 -60
-8 -7 -1 -13 -8 -13 -16 0 -14 -3 -14 -24 0 -20 14 -29 14 -48 4 -14 -8 -18
-14 -10 -17 17 -5 15 -29 -8 -91 -23 -64 -31 -70 -90 -72 -25 0 -54 -4 -65 -8
-18 -7 -17 -8 7 -13 15 -3 32 0 38 6 7 7 16 7 30 -2 11 -6 30 -12 43 -12 21 0
23 -4 19 -26 -3 -15 -10 -23 -18 -20 -9 3 -7 -8 6 -37 11 -23 15 -43 10 -45
-5 -2 -47 30 -92 70 -46 40 -104 89 -130 107 -27 19 -48 37 -48 40 0 3 13 20
28 38 15 18 40 50 56 73 17 22 38 40 48 40 10 0 18 4 18 9 0 22 -13 41 -29 41
-14 1 -14 2 2 14 9 7 17 23 17 35 0 11 4 21 8 21 5 0 21 23 36 50 20 36 23 50
14 50 -8 0 -24 13 -36 29 -36 49 -212 122 -402 165 -41 9 -83 21 -92 27 -24
12 -31 11 -21 -3 4 -7 8 -56 9 -108 2 -93 -11 -140 -39 -140 -5 0 -25 -11 -43
-25 -55 -42 -92 -54 -132 -43 -19 5 -57 8 -85 6 l-50 -3 7 85 c4 47 8 94 9
106 1 11 19 38 40 60 112 116 105 107 77 99 -14 -4 -43 -25 -65 -46 -23 -21
-43 -39 -46 -39 -3 0 -11 18 -18 40 -17 59 -50 35 -51 -37 0 -33 -15 -29 -76
23 -51 44 -53 45 -43 18 6 -16 32 -46 59 -66 46 -35 48 -40 53 -95 8 -87 18
-133 29 -133 5 0 7 -4 4 -9 -4 -5 -4 -15 -1 -23 4 -10 34 -13 123 -13 90 0
124 -4 142 -16 14 -8 54 -23 90 -32 114 -28 122 -29 114 -15 -8 12 -16 79 -18
146 -1 17 -4 32 -8 32 -18 0 -6 21 17 32 13 6 22 14 20 19 -3 4 9 18 27 30 18
12 45 33 59 46 25 23 27 23 65 8 21 -9 50 -28 63 -43 13 -15 20 -21 17 -14 -4
7 -1 12 6 12 15 0 168 -88 168 -96 0 -10 -67 -74 -78 -74 -5 0 -9 11 -9 25 0
14 -16 45 -34 70 -41 53 -59 60 -24 9 26 -39 32 -69 15 -79 -13 -8 6 -35 25
-35 7 0 18 -7 25 -15 10 -12 9 -16 -4 -21 -9 -3 -16 -14 -16 -23 0 -9 -8 -28
-17 -41 -10 -14 -16 -33 -15 -42 2 -10 -2 -18 -7 -18 -6 0 -11 -7 -11 -15 0
-8 -4 -15 -10 -15 -5 0 -12 -16 -16 -35 -3 -19 -9 -35 -11 -35 -3 0 -32 16
-64 35 -80 49 -235 121 -292 137 -41 11 -50 10 -58 -2 -8 -13 -12 -11 -26 8
-13 18 -25 22 -69 22 -47 0 -54 -2 -54 -20 0 -27 -30 -26 -37 1 -5 17 -11 19
-37 13 -76 -16 -132 -64 -75 -64 12 0 17 4 14 11 -13 20 69 5 87 -16 9 -11 20
-16 25 -11 4 5 2 11 -4 13 -20 7 -15 23 8 23 11 0 18 -4 15 -9 -4 -5 3 -7 14
-4 11 3 40 2 66 -2 38 -5 43 -9 33 -21 -7 -9 -8 -14 -1 -14 6 0 14 9 17 20 8
26 22 26 30 0 4 -11 10 -18 15 -15 5 3 11 1 15 -4 3 -6 12 -8 20 -4 21 7 19
-10 -5 -37 -24 -28 -25 -25 2 -27 13 -1 24 -7 26 -13 5 -13 62 -13 62 0 0 6 7
10 15 10 8 0 15 5 15 10 0 14 -11 12 -30 -5 -20 -18 -51 -10 -43 11 3 8 0 14
-6 14 -6 0 -11 -4 -11 -10 0 -5 -7 -10 -15 -10 -12 0 -11 5 3 30 17 30 36 42
26 16 -7 -17 20 -28 51 -20 16 4 30 0 40 -10 9 -9 24 -16 34 -16 26 0 122 -51
115 -61 -3 -5 -10 -6 -16 -3 -8 5 -9 1 -5 -10 4 -10 7 -27 8 -39 1 -21 1 -20
8 2 4 17 15 26 34 28 15 2 27 -1 27 -7 0 -6 5 -8 10 -5 6 3 10 1 10 -4 0 -6 6
-11 14 -11 22 0 111 -81 108 -98 -3 -10 2 -13 14 -8 16 6 44 -9 44 -25 0 -4
-8 -9 -17 -12 -10 -2 -5 -3 12 -3 16 1 30 -3 31 -9 2 -20 16 -45 27 -45 14 0
87 -82 87 -97 0 -21 28 -15 35 7 4 13 -4 34 -25 63 -19 27 -28 50 -24 60 9 25
18 21 49 -23 15 -22 30 -38 34 -35 7 7 -29 75 -40 75 -5 0 -15 12 -23 28 -12
23 -12 30 0 47 8 10 14 27 14 37 0 10 8 21 18 24 9 3 24 9 32 13 8 4 31 6 50
5 50 -3 70 19 70 78 0 81 21 66 155 -111 27 -36 42 -62 33 -58 -9 3 -22 0 -28
-8 -8 -10 -7 -16 7 -23 13 -8 18 -23 18 -56 0 -25 -3 -46 -7 -46 -4 0 -8 -4
-8 -10 0 -5 7 -10 15 -10 8 0 15 -4 15 -10 0 -5 22 -10 50 -10 49 0 50 -1 75
-47 15 -27 23 -39 20 -28 -4 11 -9 33 -12 49 -5 24 -3 28 10 23 28 -11 19 1
-13 18 -16 9 -30 22 -30 30 0 8 -4 15 -10 15 -5 0 -10 6 -10 14 0 22 -51 125
-94 189 -43 64 -120 144 -148 153 -23 7 -23 20 1 27 29 7 131 -107 222 -248
25 -38 61 -95 81 -125 20 -30 44 -79 54 -108 15 -41 23 -52 37 -48 12 3 17 -2
17 -19 0 -13 -5 -25 -11 -27 -7 -2 -5 -23 7 -63 37 -130 83 -206 111 -184 10
9 13 8 13 -5 0 -13 5 -16 23 -10 62 19 65 22 69 66 3 24 4 44 3 45 0 1 -25 -4
-55 -12 -30 -8 -56 -15 -57 -15 -2 0 -3 7 -3 15 0 8 9 15 19 15 11 0 59 13
107 30 48 16 91 27 95 24 22 -13 6 -33 -30 -39 -36 -6 -39 -9 -45 -47 -4 -22
-5 -43 -2 -45 3 -3 26 2 52 11 49 16 64 14 64 -10 0 -8 -10 -14 -22 -14 -13
-1 -61 -11 -108 -23 l-85 -23 -3 -106 c-3 -103 -2 -106 18 -101 15 4 20 1 20
-16 0 -11 -6 -21 -14 -21 -10 0 -12 -7 -9 -21 4 -14 0 -26 -10 -34 -11 -8 -22
-51 -36 -146 -22 -152 -53 -292 -58 -267 -3 9 1 43 6 74 6 32 11 82 11 111 0
30 5 63 10 74 29 53 -50 -9 -90 -71 -18 -27 -38 -50 -46 -50 -7 0 -25 15 -39
34 -24 32 -125 103 -125 88 0 -21 131 -172 149 -172 21 0 62 28 67 45 4 11 20
38 36 60 l30 40 -7 -60 c-25 -220 -145 -531 -290 -750 -102 -152 -223 -294
-232 -270 -12 36 -73 111 -100 124 -35 17 -38 34 -7 40 10 2 25 12 32 23 8 11
20 17 28 14 7 -3 16 -1 19 5 4 5 11 7 16 4 5 -4 9 3 9 14 0 11 5 23 10 26 6 4
-1 22 -17 45 -15 21 -31 36 -36 33 -4 -2 -5 -9 -2 -14 4 -5 -1 -9 -10 -9 -12
0 -15 5 -11 16 4 11 -1 18 -15 21 -15 4 -20 12 -16 29 4 21 2 21 -17 9 -12 -8
-27 -11 -34 -6 -11 6 -3 24 33 76 25 37 57 90 71 116 13 27 30 49 37 49 6 0
32 -14 57 -30 25 -16 53 -30 62 -30 9 0 19 -4 22 -9 3 -5 24 -7 46 -4 22 3 46
1 53 -5 7 -6 23 -9 34 -6 19 5 20 9 11 33 -20 54 -18 78 8 90 14 6 31 11 40
11 8 0 29 8 48 18 l34 19 -48 12 c-26 7 -56 21 -65 31 -10 11 -22 17 -26 14
-5 -3 -12 2 -15 10 -3 9 -15 16 -25 16 -10 0 -26 11 -34 24 -14 21 -23 24 -62
21 -57 -5 -62 -10 -26 -28 15 -9 37 -31 47 -51 11 -20 25 -36 33 -36 18 0 17
-35 -2 -50 -8 -7 -15 -10 -15 -6 0 3 -24 -5 -54 -18 -50 -22 -57 -23 -82 -9
-16 8 -30 15 -31 17 -1 1 12 40 31 87 30 77 55 181 72 299 7 49 19 70 40 70 9
0 14 -12 15 -32 1 -31 2 -31 8 7 4 22 21 61 39 87 18 26 32 51 32 56 0 14 25
32 50 37 13 2 20 1 16 -2 -15 -15 87 -133 116 -133 9 0 19 -6 21 -12 4 -10 6
-10 6 0 1 6 -8 21 -19 32 -11 11 -20 24 -20 29 0 26 -107 121 -135 121 -4 0
-26 -20 -49 -44 l-43 -44 -7 99 c-3 54 -11 121 -17 149 -6 28 -8 54 -5 57 3 3
29 8 58 11 29 2 58 8 64 13 5 4 20 6 32 2 16 -4 22 -1 22 10 0 9 10 19 23 23
33 11 87 11 87 -1 0 -6 -16 -34 -35 -62 -41 -62 -42 -66 -12 -52 14 6 32 30
42 56 10 24 30 53 44 64 l25 20 -25 23 c-39 36 -149 109 -156 103 -9 -10 77
-87 97 -87 44 0 16 -19 -37 -26 -32 -4 -75 -13 -95 -20 -21 -7 -38 -11 -38 -7
0 3 -11 -2 -24 -10 -20 -13 -46 -16 -87 -8 -4 0 -12 22 -18 47 -9 35 -15 44
-27 40 -9 -3 -17 -6 -19 -6 -2 0 3 -24 11 -52 16 -63 17 -68 5 -68 -5 0 -19
30 -31 68 -28 85 -100 242 -111 242 -16 0 -9 -30 21 -90 30 -59 42 -109 14
-57 -8 15 -17 27 -20 27 -2 0 0 -10 7 -21 8 -17 8 -23 -1 -29 -9 -6 -6 -10 9
-15 16 -5 19 -10 12 -19 -7 -8 -4 -21 9 -41 13 -20 16 -31 8 -36 -8 -5 -6 -12
5 -24 19 -19 21 -31 7 -40 -5 -3 -10 -12 -10 -18 0 -8 3 -8 9 2 6 9 11 10 15
2 4 -6 5 -15 2 -19 -3 -5 1 -30 9 -57 18 -59 19 -95 3 -95 -7 0 -24 -10 -38
-21 -24 -20 -18 -20 25 -3 9 4 15 1 15 -7 0 -8 3 -24 6 -36 5 -19 3 -21 -18
-16 -13 2 -19 1 -13 -4 10 -8 29 -44 39 -76 3 -10 1 -28 -5 -39 -6 -12 -13
-53 -14 -92 -1 -42 -6 -71 -13 -74 -7 -2 -12 -13 -12 -24 0 -60 -37 -148 -62
-148 -10 0 -18 -7 -18 -15 0 -8 5 -15 10 -15 15 0 12 -16 -5 -34 -8 -8 -15
-22 -15 -30 0 -9 -7 -16 -16 -16 -10 0 -14 -6 -10 -15 8 -23 -12 -18 -24 6 -7
11 -9 32 -6 45 4 14 2 24 -4 24 -5 0 -10 -5 -10 -12 0 -6 -7 -19 -16 -29 -14
-15 -14 -17 3 -15 24 2 48 -65 27 -77 -8 -5 -12 -12 -9 -18 4 -5 1 -9 -6 -9
-7 0 -9 -3 -6 -6 4 -4 -2 -19 -13 -34 -11 -16 -20 -33 -20 -40 0 -6 -6 -10
-12 -7 -7 2 -12 9 -11 14 1 5 -14 10 -33 11 -18 1 -34 -3 -34 -8 0 -6 7 -10
15 -10 10 0 15 -10 15 -30 0 -20 -5 -30 -15 -30 -29 0 -15 -26 29 -54 28 -18
30 -18 42 -1 16 22 34 11 34 -22 0 -22 2 -24 16 -12 14 11 20 8 45 -21 16 -19
29 -38 29 -42 0 -5 7 -8 15 -8 26 0 16 -17 -21 -36 -20 -11 -50 -26 -68 -36
-30 -16 -32 -15 -64 9 -41 31 -54 22 -21 -13 28 -31 117 -98 142 -107 9 -3 17
-13 17 -21 0 -8 14 -26 31 -41 l32 -26 -34 -36 c-34 -36 -34 -36 -4 -16 61 43
183 163 199 198 10 19 21 33 25 31 4 -3 29 24 55 59 81 110 70 75 -16 -53
-106 -157 -225 -284 -365 -390 -40 -30 -73 -58 -73 -62 0 -4 7 -10 15 -14 8
-3 15 -10 15 -16 0 -15 -26 -12 -39 4 -10 12 -32 3 -134 -49 -67 -34 -155 -73
-196 -86 -82 -26 -92 -37 -158 -171 -39 -78 -39 -81 -13 -73 11 4 20 2 20 -4
0 -13 -33 -31 -55 -31 -14 0 -16 6 -11 34 l7 35 -31 -16 c-21 -10 -44 -13 -70
-9 -23 3 -41 2 -45 -4 -9 -15 -27 0 -21 17 6 16 5 16 -172 -4 l-52 -5 1 -89 1
-89 42 -12 c86 -25 354 -7 389 26 6 6 25 12 41 13 16 0 38 6 50 11 11 5 44 18
71 27 52 18 74 28 215 90 166 74 205 96 187 107 -20 11 -37 3 -37 -18 0 -8 -4
-14 -8 -14 -10 0 -9 30 2 48 11 18 -3 35 -19 22 -9 -7 -21 -7 -40 0 -25 10
-27 14 -23 54 5 39 3 45 -19 55 -30 14 -20 35 13 27 14 -4 24 -2 24 4 0 5 5
10 10 10 6 0 10 -7 10 -16 0 -8 16 -22 35 -30 44 -18 38 -37 -6 -22 -35 12
-49 1 -49 -39 0 -29 23 -30 58 -2 l27 21 3 -28 c2 -16 14 -39 26 -51 l23 -21
109 73 c189 128 218 163 60 75 -49 -28 -91 -49 -92 -47 -2 2 31 32 72 68 129
109 152 145 107 172 -7 4 -13 14 -13 22 0 8 -7 11 -20 8 -11 -3 -20 0 -20 5 0
16 39 35 56 28 8 -3 14 1 14 9 0 8 -7 15 -15 15 -8 0 -15 5 -15 10 0 6 6 10
13 10 6 0 20 14 30 31 17 30 20 31 64 25 25 -3 71 -19 101 -36 31 -16 60 -30
66 -30 15 1 113 128 181 235 108 172 205 397 254 594 46 180 63 328 63 536 0
210 -16 345 -63 528 -37 145 -147 417 -168 417 -6 0 -10 3 -9 8 4 13 -13 52
-23 52 -9 0 -13 -20 -10 -50 1 -8 24 -63 52 -122 28 -59 49 -113 46 -120 -2
-7 -26 33 -52 90 -28 59 -54 102 -62 102 -8 0 -11 5 -8 10 3 6 1 10 -4 10 -6
0 -11 -9 -11 -19 0 -21 -17 -37 -27 -27 -4 3 -2 22 4 41 6 19 9 35 6 35 -2 0
-36 -20 -74 -45 -64 -42 -89 -48 -89 -25 0 5 32 26 71 46 69 36 70 38 47 50
-12 7 -33 13 -44 14 -21 0 -21 3 -17 98 4 78 1 108 -14 152 -11 31 -26 55 -34
56 -30 2 -33 5 -17 18 16 11 15 15 -10 52 -50 75 -105 135 -181 198 -68 56
-120 89 -107 68 2 -4 1 -14 -4 -22 -7 -12 -12 -12 -22 -2 -10 10 -10 17 -1 32
11 17 5 23 -55 61 -177 112 -552 277 -712 313 -164 36 -240 48 -361 53 l-127
6 -34 -54z m109 -21 c9 12 19 22 24 22 18 0 8 -25 -23 -57 -17 -18 -28 -36
-24 -40 3 -4 21 10 39 30 18 20 35 37 40 37 17 0 5 -23 -33 -62 -34 -36 -40
-48 -40 -85 0 -32 -4 -43 -15 -43 -12 0 -15 18 -15 103 0 106 7 136 23 95 l9
-23 15 23z m443 -94 l20 -46 39 31 c22 18 42 27 45 22 4 -5 0 -36 -8 -68 -9
-32 -19 -76 -24 -98 -5 -27 -14 -41 -26 -43 -16 -3 -18 0 -12 23 6 25 -9 95
-21 95 -13 0 -63 -43 -63 -54 0 -8 -7 -19 -15 -26 -26 -22 -29 16 -6 79 11 32
21 63 21 69 0 16 19 62 25 62 3 0 15 -21 25 -46z m-1235 -14 c7 -11 -4 -60
-14 -60 -11 0 -32 50 -26 61 8 12 32 12 40 -1z m1055 -55 c0 -8 -7 -15 -15
-15 -8 0 -15 7 -15 15 0 8 7 15 15 15 8 0 15 -7 15 -15z m-1286 -23 c9 -16
-10 -31 -32 -25 -22 5 -27 14 -15 26 9 10 41 9 47 -1z m276 -72 c0 -5 -4 -10
-10 -10 -5 0 -10 5 -10 10 0 6 5 10 10 10 6 0 10 -4 10 -10z m1720 -36 c11
-26 20 -52 20 -59 0 -7 -22 -16 -52 -21 -41 -7 -54 -13 -56 -29 -2 -11 -11
-26 -20 -32 -42 -33 -43 2 -2 62 17 24 30 46 30 49 0 11 45 76 52 76 4 0 16
-21 28 -46z m-2210 -24 c0 -5 -4 -10 -10 -10 -5 0 -10 5 -10 10 0 6 5 10 10
10 6 0 10 -4 10 -10z m1800 -5 c0 -8 -7 -15 -15 -15 -8 0 -15 7 -15 15 0 8 7
15 15 15 8 0 15 -7 15 -15z m-1753 -21 c-9 -9 -28 6 -21 18 4 6 10 6 17 -1 6
-6 8 -13 4 -17z m1614 -54 c21 0 39 -4 39 -9 0 -11 -87 -61 -106 -61 -8 0 -14
9 -14 20 0 11 -6 20 -14 20 -11 0 -12 5 -3 24 10 20 15 22 35 15 13 -5 41 -9
63 -9z m759 -50 c0 -5 -5 -10 -11 -10 -5 0 -7 5 -4 10 3 6 8 10 11 10 2 0 4
-4 4 -10z m-2465 -30 c0 -8 -10 -16 -22 -18 -22 -3 -32 16 -16 32 12 11 38 2
38 -14z m58 6 c19 -15 24 -31 5 -19 -7 4 -19 8 -27 8 -8 0 -16 6 -18 13 -6 16
17 15 40 -2z m-191 -48 c2 -46 1 -54 -6 -83 l-6 -25 76 0 c56 0 75 -3 71 -12
-3 -9 -27 -12 -83 -11 -51 1 -81 -2 -86 -10 -4 -6 -10 -8 -15 -4 -4 5 -2 12 6
16 8 5 12 27 11 62 -2 58 7 99 21 99 5 0 10 -15 11 -32z m288 -43 c0 -8 -4
-15 -10 -15 -5 0 -10 7 -10 15 0 8 5 15 10 15 6 0 10 -7 10 -15z m1470 -57 c6
-18 16 -41 21 -50 11 -22 12 -48 0 -48 -4 0 -19 8 -32 18 -43 32 -109 57 -109
42 0 -6 -7 -10 -15 -10 -29 0 -15 19 29 38 24 11 47 25 50 31 14 23 43 11 56
-21z m1023 8 c3 -7 9 -34 12 -60 l7 -46 -56 0 -57 0 6 -34 c4 -20 2 -36 -4
-40 -7 -5 -11 5 -11 28 0 41 -8 45 -33 16 -20 -24 -37 -26 -37 -5 0 17 139
154 156 155 7 0 14 -6 17 -14z m-2943 -96 c0 -5 -4 -10 -10 -10 -5 0 -10 5
-10 10 0 6 5 10 10 10 6 0 10 -4 10 -10z m124 -46 c9 -24 7 -27 -9 -10 -17 17
-19 26 -6 26 5 0 12 -7 15 -16z m-154 -14 c0 -11 -4 -20 -10 -20 -5 0 -10 9
-10 20 0 11 5 20 10 20 6 0 10 -9 10 -20z m74 -36 c20 -20 12 -34 -20 -34 -17
0 -24 6 -24 19 0 11 6 22 13 24 6 3 13 6 14 6 1 1 9 -6 17 -15z m2643 -74 c-1
-54 -6 -80 -14 -80 -6 0 -15 4 -18 10 -3 5 -26 8 -50 6 l-44 -3 1 63 c1 57 3
62 22 59 12 -2 37 2 56 10 19 7 38 13 42 14 3 0 6 -35 5 -79z m172 44 c-16
-20 -28 -17 -22 5 3 12 11 17 19 14 11 -4 12 -9 3 -19z m-804 -4 c3 -5 -3 -10
-14 -10 -12 0 -21 5 -21 10 0 6 6 10 14 10 8 0 18 -4 21 -10z m1015 -60 c0 -5
-4 -10 -10 -10 -5 0 -10 5 -10 10 0 6 5 10 10 10 6 0 10 -4 10 -10z m-3010
-46 c0 -8 -5 -12 -10 -9 -6 4 -8 11 -5 16 9 14 15 11 15 -7z m2467 -30 c9 -23
-11 -38 -26 -20 -13 16 -7 36 10 36 5 0 12 -7 16 -16z m-2697 -44 c0 -5 -5
-10 -11 -10 -5 0 -7 5 -4 10 3 6 8 10 11 10 2 0 4 -4 4 -10z m3310 0 c12 -7
12 -13 4 -27 -18 -29 -44 -29 -44 0 0 36 13 45 40 27z m-80 -21 c0 -5 -4 -9
-10 -9 -5 0 -10 7 -10 16 0 8 5 12 10 9 6 -3 10 -10 10 -16z m-97 -115 c15
-25 25 -49 22 -53 -2 -5 -19 -6 -37 -2 -27 6 -31 11 -31 36 1 81 7 83 46 19z
m412 6 c3 -5 1 -10 -4 -10 -6 0 -11 5 -11 10 0 6 2 10 4 10 3 0 8 -4 11 -10z
m-201 -26 c23 -9 20 -44 -3 -44 -22 0 -45 25 -36 40 7 11 17 13 39 4z m-3300
-53 c3 -5 -1 -11 -9 -15 -15 -6 -29 7 -18 18 9 9 21 8 27 -3z m-244 -11 c0 -5
-4 -10 -9 -10 -6 0 -13 5 -16 10 -3 6 1 10 9 10 9 0 16 -4 16 -10z m3680 -20
c0 -5 -4 -10 -10 -10 -5 0 -10 5 -10 10 0 6 5 10 10 10 6 0 10 -4 10 -10z
m-3515 -60 c3 -5 2 -10 -4 -10 -5 0 -13 5 -16 10 -3 6 -2 10 4 10 5 0 13 -4
16 -10z m55 -20 c0 -5 -2 -10 -4 -10 -3 0 -8 5 -11 10 -3 6 -1 10 4 10 6 0 11
-4 11 -10z m-93 -26 c-9 -9 -28 6 -21 18 4 6 10 6 17 -1 6 -6 8 -13 4 -17z
m-17 -38 c0 -3 -4 -8 -10 -11 -5 -3 -10 -1 -10 4 0 6 5 11 10 11 6 0 10 -2 10
-4z m-43 -79 c-2 -7 3 -25 11 -42 9 -16 18 -41 19 -54 4 -21 1 -23 -24 -18
-57 10 -188 48 -196 56 -10 10 50 70 71 71 7 0 18 -11 24 -25 6 -14 18 -25 26
-25 20 0 52 29 52 47 0 8 5 11 11 8 5 -4 8 -12 6 -18z m-222 -86 c3 -5 1 -12
-5 -16 -5 -3 -10 1 -10 9 0 18 6 21 15 7z m99 -22 c-3 -5 -10 -7 -15 -3 -5 3
-7 10 -3 15 3 5 10 7 15 3 5 -3 7 -10 3 -15z m160 -51 c9 -34 8 -38 -9 -38
-18 0 -30 24 -21 45 8 22 23 18 30 -7z m431 -10 c-13 -65 -16 -70 -31 -57 -8
6 -14 18 -14 25 0 8 -4 14 -10 14 -18 0 -10 15 18 32 39 24 44 22 37 -14z
m-550 -18 c0 -22 -29 -18 -33 3 -3 14 1 18 15 15 10 -2 18 -10 18 -18z m55 0
c0 -5 -2 -10 -4 -10 -3 0 -8 5 -11 10 -3 6 -1 10 4 10 6 0 11 -4 11 -10z
m-160 -20 c0 -5 -7 -10 -15 -10 -8 0 -15 5 -15 10 0 6 7 10 15 10 8 0 15 -4
15 -10z m130 0 c0 -5 -4 -10 -10 -10 -5 0 -10 5 -10 10 0 6 5 10 10 10 6 0 10
-4 10 -10z m53 -21 c-4 -15 -9 -17 -17 -9 -8 8 -7 13 4 20 8 5 16 10 17 10 0
0 -1 -9 -4 -21z m-133 1 c0 -5 -4 -10 -10 -10 -5 0 -10 5 -10 10 0 6 5 10 10
10 6 0 10 -4 10 -10z m3257 -93 c12 -54 24 -134 28 -180 6 -75 5 -84 -14 -101
l-21 -19 0 64 c0 35 -3 94 -6 131 -6 59 -9 67 -30 72 -29 8 -31 32 -4 41 19 6
20 32 4 83 -2 8 2 12 8 10 7 -3 23 -48 35 -101z m-3087 83 c0 -5 -2 -10 -4
-10 -3 0 -8 5 -11 10 -3 6 -1 10 4 10 6 0 11 -4 11 -10z m3700 -30 c0 -5 -4
-10 -10 -10 -5 0 -10 5 -10 10 0 6 5 10 10 10 6 0 10 -4 10 -10z m-3755 -24
c-3 -6 -8 -19 -11 -28 -7 -20 -39 -24 -49 -7 -4 6 2 13 14 16 11 3 18 9 15 14
-3 5 -3 13 1 19 8 13 37 0 30 -14z m599 -175 c-10 -40 -24 -54 -41 -39 -16 13
-10 58 9 69 22 14 38 -2 32 -30z m-664 4 c0 -8 -4 -15 -10 -15 -5 0 -10 -8
-10 -17 0 -14 -2 -15 -12 -4 -10 11 -10 14 0 18 6 3 12 11 12 19 0 8 5 14 10
14 6 0 10 -7 10 -15z m3871 -85 c18 -22 41 -40 51 -40 10 0 18 -7 18 -15 0
-12 -15 -15 -72 -15 -40 0 -83 3 -95 6 -21 6 -21 7 15 55 20 27 40 49 44 49 4
0 22 -18 39 -40z m-3206 -120 c0 -7 -6 -15 -12 -17 -8 -3 -13 4 -13 17 0 13 5
20 13 18 6 -3 12 -11 12 -18z m-755 -10 c0 -5 -4 -10 -10 -10 -5 0 -10 5 -10
10 0 6 5 10 10 10 6 0 10 -4 10 -10z m760 -100 c0 -5 -4 -10 -10 -10 -5 0 -10
5 -10 10 0 6 5 10 10 10 6 0 10 -4 10 -10z m3070 -20 c0 -5 -4 -10 -10 -10 -5
0 -10 5 -10 10 0 6 5 10 10 10 6 0 10 -4 10 -10z m101 -75 c-1 -15 -24 -12
-29 3 -3 9 2 13 12 10 10 -1 17 -7 17 -13z m-156 -35 c-3 -5 -10 -10 -16 -10
-5 0 -9 5 -9 10 0 6 7 10 16 10 8 0 12 -4 9 -10z m-3555 -36 c0 -8 -9 -14 -21
-14 -14 0 -19 -5 -16 -14 8 -21 -4 -28 -22 -12 -14 11 -21 11 -50 -1 -18 -8
-35 -23 -38 -33 -6 -22 -23 -27 -23 -7 0 25 30 56 62 62 17 4 45 16 61 26 32
19 47 17 47 -7z m590 -5 c0 -11 -4 -17 -10 -14 -5 3 -10 13 -10 21 0 8 5 14
10 14 6 0 10 -9 10 -21z m3178 -26 c-5 -25 -28 -28 -28 -4 0 12 6 21 16 21 9
0 14 -7 12 -17z m-3313 -40 c9 -20 14 -37 13 -38 -2 -2 -21 0 -43 4 -34 5 -40
10 -40 31 0 24 32 53 48 43 4 -2 14 -21 22 -40z m2773 -22 c9 -27 -38 -8 -64
26 l-29 38 45 -26 c24 -15 46 -32 48 -38z m350 41 c2 -7 -6 -12 -17 -12 -21 0
-27 11 -14 24 9 9 26 2 31 -12z m-3569 -37 c8 0 16 -5 18 -12 4 -11 -53 -33
-84 -33 -7 0 -13 -4 -13 -9 0 -4 -10 -6 -23 -4 -12 3 -41 -2 -65 -10 -23 -8
-42 -12 -42 -8 0 13 16 28 30 28 8 0 40 7 72 16 49 15 55 20 51 38 -6 20 -4
20 18 8 13 -7 30 -13 38 -14z m3611 6 c0 -5 -14 -14 -31 -21 -42 -18 -30 -23
129 -56 26 -5 30 -34 4 -34 -10 0 -52 11 -92 25 -40 14 -81 25 -91 25 -34 0
-29 18 14 44 44 26 67 32 67 17z m-3397 -33 c26 -6 47 -14 47 -18 0 -3 -8 -15
-19 -26 -10 -12 -22 -35 -25 -52 -12 -51 -33 -47 -51 11 -9 29 -21 65 -26 81
-7 24 -6 27 9 21 9 -3 38 -11 65 -17z m396 -68 l23 -35 -26 28 c-14 15 -26 33
-26 39 0 13 0 14 29 -32z m2574 -20 c23 -54 23 -54 -20 -25 -21 14 -45 25 -55
25 -27 0 -31 19 -6 29 46 19 62 13 81 -29z m-3234 -24 c16 -16 19 -26 11 -31
-13 -8 -62 34 -54 46 8 14 19 10 43 -15z m3421 -27 c0 -24 -23 -21 -28 4 -2
10 3 17 12 17 10 0 16 -9 16 -21z m260 -4 c0 -8 -4 -15 -10 -15 -5 0 -10 7
-10 15 0 8 5 15 10 15 6 0 10 -7 10 -15z m-3620 -19 c0 -3 -4 -8 -10 -11 -5
-3 -10 -1 -10 4 0 6 5 11 10 11 6 0 10 -2 10 -4z m3655 -86 c3 -5 1 -10 -4
-10 -6 0 -11 5 -11 10 0 6 2 10 4 10 3 0 8 -4 11 -10z m-81 -32 c8 -33 8 -35
-9 -42 -21 -8 -40 31 -24 50 16 20 26 18 33 -8z m-94 -33 c0 -8 -4 -15 -10
-15 -5 0 -10 7 -10 15 0 8 5 15 10 15 6 0 10 -7 10 -15z m-91 -24 c27 -14 41
-17 49 -9 14 14 33 1 25 -17 -3 -10 6 -20 30 -30 41 -17 54 -32 39 -47 -7 -7
-25 0 -56 21 l-45 31 -60 -21 c-34 -11 -69 -19 -78 -16 -20 4 -8 11 72 40 l40
15 -37 18 c-36 17 -50 34 -28 34 6 0 28 -9 49 -19z m-2921 -18 c23 -6 41 -23
23 -23 -6 0 -11 -9 -11 -21 0 -11 -14 -33 -32 -49 l-32 -30 -23 63 c-31 85
-30 87 15 75 20 -5 47 -12 60 -15z m3159 21 c-3 -3 -12 -4 -19 -1 -8 3 -5 6 6
6 11 1 17 -2 13 -5z m-137 -134 c0 -5 -5 -10 -11 -10 -5 0 -7 5 -4 10 3 6 8
10 11 10 2 0 4 -4 4 -10z m45 -30 c3 -5 -1 -10 -9 -10 -9 0 -16 5 -16 10 0 6
4 10 9 10 6 0 13 -4 16 -10z m-2718 -37 c56 -19 64 -28 35 -37 -10 -4 -31 -19
-47 -36 -33 -34 -44 -27 -63 36 -16 56 -15 67 6 61 9 -4 41 -14 69 -24z m2643
-49 c0 -17 -22 -14 -28 4 -2 7 3 12 12 12 9 0 16 -7 16 -16z m-3100 -27 c22 6
29 -21 8 -33 -11 -7 -39 22 -37 40 0 7 2 7 5 0 3 -7 14 -10 24 -7z m2890 -7
c0 -21 -15 -27 -25 -10 -7 12 2 30 16 30 5 0 9 -9 9 -20z m70 7 c0 -5 9 -16
21 -26 l22 -18 -23 -21 c-13 -12 -32 -22 -41 -22 -17 0 -17 2 -1 30 14 25 15
32 3 39 -7 5 -10 14 -6 20 7 13 27 11 25 -2z m96 -34 c-10 -10 -19 5 -10 18 6
11 8 11 12 0 2 -7 1 -15 -2 -18z m-2734 -19 c16 -3 25 -11 22 -16 -4 -6 -1
-14 6 -18 20 -12 3 -43 -20 -37 -10 3 -27 -1 -37 -9 -24 -18 -34 -17 -27 1 3
8 2 27 -3 42 -12 35 -6 55 15 49 10 -3 29 -8 44 -12z m-354 -16 c-2 -13 -10
-23 -18 -23 -8 0 -16 10 -18 23 -3 17 2 22 18 22 16 0 21 -5 18 -22z m2843 9
c-1 -12 -15 -9 -19 4 -3 6 1 10 8 8 6 -3 11 -8 11 -12z m119 -47 c0 -5 -2 -10
-4 -10 -3 0 -8 5 -11 10 -3 6 -1 10 4 10 6 0 11 -4 11 -10z m-2843 -72 c29
-29 53 -58 53 -65 0 -7 -23 -15 -59 -19 -65 -7 -71 -14 -71 -86 0 -20 -5 -40
-11 -43 -11 -7 -142 111 -147 133 -4 15 25 16 30 1 3 -8 20 -9 58 -3 58 10 61
14 75 97 3 20 9 37 13 37 3 0 30 -23 59 -52z m-197 11 c0 -5 -4 -9 -10 -9 -5
0 -10 7 -10 16 0 8 5 12 10 9 6 -3 10 -10 10 -16z m300 -18 c0 -11 -4 -22 -8
-25 -14 -9 -35 12 -29 28 9 23 37 20 37 -3z m2265 -151 c-3 -5 -15 -10 -26
-10 -10 0 -19 5 -19 10 0 6 12 10 26 10 14 0 23 -4 19 -10z m242 -16 c-9 -9
-28 6 -21 18 4 6 10 6 17 -1 6 -6 8 -13 4 -17z m-92 6 c-3 -5 -10 -10 -16 -10
-5 0 -9 5 -9 10 0 6 7 10 16 10 8 0 12 -4 9 -10z m-275 -46 c0 -8 -5 -12 -10
-9 -6 4 -8 11 -5 16 9 14 15 11 15 -7z m-2185 -34 c-5 -8 -11 -8 -17 -2 -6 6
-7 16 -3 22 5 8 11 8 17 2 6 -6 7 -16 3 -22z m2415 26 c0 -11 -19 -15 -25 -6
-3 5 1 10 9 10 9 0 16 -2 16 -4z m-2220 -46 c0 -5 -4 -10 -10 -10 -5 0 -10 5
-10 10 0 6 5 10 10 10 6 0 10 -4 10 -10z m230 -46 c0 -8 -7 -22 -15 -30 -23
-24 -18 -35 11 -24 34 13 44 13 44 -4 0 -21 -72 -31 -99 -14 -12 7 -21 17 -21
23 0 16 -60 -83 -60 -100 0 -11 7 -14 24 -9 20 5 27 0 40 -25 9 -16 16 -37 16
-46 0 -27 -23 -11 -32 22 -8 30 -9 31 -46 22 -44 -10 -63 3 -45 29 7 9 32 50
55 90 32 53 48 71 60 68 10 -2 21 0 24 5 9 15 44 10 44 -7z m-322 -32 c2 -7
-3 -12 -12 -12 -9 0 -16 7 -16 16 0 17 22 14 28 -4z m1892 -6 c0 -11 -19 -15
-25 -6 -3 5 1 10 9 10 9 0 16 -2 16 -4z m30 -16 c0 -5 -4 -10 -10 -10 -5 0
-10 5 -10 10 0 6 5 10 10 10 6 0 10 -4 10 -10z m179 -120 c-12 -33 -36 -40
-46 -14 -6 17 20 44 43 44 10 0 11 -7 3 -30z m-1409 -69 c0 -8 -10 -3 -23 13
l-24 28 -11 -44 c-22 -87 -23 -96 -6 -102 21 -8 8 -26 -21 -26 -29 0 -84 85
-66 103 7 7 14 2 22 -16 7 -15 16 -27 20 -27 4 0 16 27 25 60 9 33 21 60 26
60 5 0 6 5 3 10 -3 6 -3 15 1 21 7 12 53 -57 54 -80z m460 59 c0 -5 -4 -10
-10 -10 -5 0 -10 5 -10 10 0 6 5 10 10 10 6 0 10 -4 10 -10z m788 -18 c6 -18
-15 -14 -22 4 -4 10 -1 14 6 12 6 -2 14 -10 16 -16z m-1018 -2 c0 -5 -7 -10
-15 -10 -8 0 -15 5 -15 10 0 6 7 10 15 10 8 0 15 -4 15 -10z m770 6 c0 -3 -4
-8 -10 -11 -5 -3 -10 -1 -10 4 0 6 5 11 10 11 6 0 10 -2 10 -4z m290 -6 c0 -5
-5 -10 -11 -10 -5 0 -7 5 -4 10 3 6 8 10 11 10 2 0 4 -4 4 -10z m-1156 -31
c-3 -5 -10 -7 -15 -3 -5 3 -7 10 -3 15 3 5 10 7 15 3 5 -3 7 -10 3 -15z m-51
-42 c9 -4 17 -13 17 -22 0 -19 2 -19 -49 6 -35 17 -40 23 -30 35 10 12 14 12
28 1 9 -8 24 -17 34 -20z m907 26 c-1 -26 -38 -127 -48 -131 -15 -5 -16 22 -2
48 6 10 11 32 12 47 2 36 6 43 24 43 8 0 14 -3 14 -7z m-240 -13 c0 -5 -4 -10
-10 -10 -5 0 -10 5 -10 10 0 6 5 10 10 10 6 0 10 -4 10 -10z m-370 -10 c0 -5
-4 -10 -10 -10 -5 0 -10 5 -10 10 0 6 5 10 10 10 6 0 10 -4 10 -10z m-390 -10
c0 -5 -2 -10 -4 -10 -3 0 -8 5 -11 10 -3 6 -1 10 4 10 6 0 11 -4 11 -10z m660
-20 c0 -5 -9 -10 -21 -10 -11 0 -17 5 -14 10 3 6 13 10 21 10 8 0 14 -4 14
-10z m-451 -9 c16 -10 6 -31 -14 -31 -14 0 -27 24 -18 34 8 8 15 7 32 -3z
m-174 -30 c3 -5 1 -12 -4 -15 -12 -8 -41 3 -41 15 0 12 37 12 45 0z m215 -31
c0 -5 -4 -10 -10 -10 -5 0 -10 5 -10 10 0 6 5 10 10 10 6 0 10 -4 10 -10z
m-26 -41 c-3 -5 -10 -7 -15 -3 -5 3 -7 10 -3 15 3 5 10 7 15 3 5 -3 7 -10 3
-15z"/>
<path d="M2745 4094 c-8 -44 -3 -50 19 -25 11 13 15 27 11 40 -10 32 -22 25
-30 -15z"/>
<path d="M2827 4092 c-15 -16 -15 -21 -2 -38 8 -10 15 -17 15 -14 0 3 4 20 9
38 11 36 2 41 -22 14z"/>
<path d="M3270 3932 c0 -10 -5 -23 -12 -30 -9 -9 -5 -12 20 -12 29 0 31 2 22
24 -5 13 -6 27 -3 30 4 3 -1 6 -10 6 -10 0 -17 -8 -17 -18z"/>
<path d="M3657 3582 l-28 -29 32 -7 c18 -3 33 -5 35 -4 1 2 -1 18 -4 36 l-7
33 -28 -29z"/>
<path d="M311 2726 c-10 -11 -8 -16 9 -21 26 -8 33 -3 24 19 -8 20 -18 20 -33
2z"/>
<path d="M412 2707 c-14 -16 -6 -27 20 -27 13 0 18 6 16 17 -4 22 -22 27 -36
10z"/>
<path d="M4182 2200 c-17 -28 -16 -30 18 -30 33 0 36 6 16 33 -17 21 -18 21
-34 -3z"/>
<path d="M915 894 c-4 -16 -9 -35 -11 -43 -3 -9 1 -11 12 -7 8 3 24 6 35 6 26
0 24 22 -5 50 l-25 23 -6 -29z"/>
<path d="M817 801 l-28 -6 30 -29 c35 -33 38 -32 47 12 7 34 5 35 -49 23z"/>
<path d="M1250 3925 c0 -10 10 -15 29 -15 37 0 49 16 18 24 -35 9 -47 7 -47
-9z"/>
<path d="M1280 3883 c0 -5 5 -15 10 -23 8 -12 10 -11 10 8 0 12 -4 22 -10 22
-5 0 -10 -3 -10 -7z"/>
<path d="M3841 3685 c75 -99 149 -175 170 -175 24 0 -113 165 -192 231 l-53
44 75 -100z"/>
<path d="M1455 3687 c-7 -16 -15 -18 -54 -12 l-46 6 30 -20 c17 -12 36 -21 44
-21 10 0 12 -9 7 -35 -20 -103 -20 -102 31 -125 36 -16 48 -18 55 -8 13 21 10
23 -37 36 -41 11 -44 14 -36 34 10 28 11 31 11 64 0 25 2 25 42 19 24 -4 52
-14 64 -22 20 -12 21 -18 12 -56 -6 -23 -16 -46 -22 -52 -12 -10 -16 -108 -5
-120 4 -3 10 10 13 29 4 19 11 38 17 41 5 4 30 -1 54 -11 35 -13 44 -21 40
-35 -4 -11 4 -27 21 -44 23 -24 25 -29 12 -36 -10 -6 -14 -17 -11 -29 3 -12
-2 -29 -11 -39 -10 -11 -13 -21 -7 -25 5 -3 17 12 27 34 10 22 21 40 25 40 4
0 10 14 14 30 4 17 10 30 15 30 4 0 6 -8 3 -19 -3 -10 0 -22 6 -25 7 -4 11 1
11 14 0 32 18 60 40 60 10 0 22 5 25 11 4 6 14 8 22 4 9 -3 31 4 50 15 34 20
79 28 69 11 -3 -5 1 -14 8 -20 12 -10 15 -7 18 15 3 25 7 28 47 31 42 3 43 2
36 -24 -5 -23 -4 -25 9 -14 13 11 16 11 16 -2 0 -10 12 -16 39 -19 24 -2 37 1
35 7 -3 6 -17 11 -32 10 -21 0 -26 4 -24 19 3 14 -1 17 -12 13 -10 -4 -16 -1
-16 8 0 8 7 15 16 15 12 0 15 6 10 23 -3 12 -6 26 -6 30 0 22 -252 -33 -362
-79 -65 -27 -64 -27 -133 14 -28 17 -30 23 -31 80 -1 34 -8 69 -15 78 -16 19
-61 43 -90 47 -13 2 -26 12 -30 23 -7 18 -7 18 -14 1z m320 -277 c3 -5 1 -10
-4 -10 -6 0 -11 5 -11 10 0 6 2 10 4 10 3 0 8 -4 11 -10z"/>
<path d="M1208 3582 c-26 -20 -66 -53 -90 -73 -24 -20 -52 -39 -63 -41 -13 -2
-19 -10 -17 -22 2 -11 -11 -34 -31 -55 -19 -20 -47 -54 -63 -76 -27 -38 -27
-39 -4 -20 14 11 27 22 30 25 3 3 25 22 49 43 l43 39 55 -56 c30 -31 59 -54
63 -51 5 3 20 -8 33 -25 14 -17 28 -26 32 -20 9 14 37 0 31 -16 -3 -8 1 -14
11 -14 25 0 7 -12 -24 -16 -15 -2 -48 -8 -73 -12 -43 -9 -44 -10 -20 -19 17
-7 47 -7 93 0 37 6 70 7 74 4 4 -4 -7 -22 -23 -40 -46 -49 -63 -76 -28 -44 48
44 48 32 0 -37 -31 -43 -46 -74 -46 -95 0 -35 15 -42 25 -11 3 11 11 20 16 20
5 0 9 7 9 15 0 8 7 15 15 15 8 0 21 15 29 34 16 38 200 207 259 237 l38 20 13
-32 c8 -20 16 -27 20 -20 4 7 1 22 -7 35 -9 14 -12 28 -7 36 5 8 4 22 -1 31
-5 10 -6 25 -3 34 11 28 -107 -38 -187 -105 -39 -33 -75 -60 -79 -60 -5 0 -31
29 -60 64 -32 40 -58 62 -66 59 -8 -3 -18 5 -24 22 -7 19 -14 24 -23 18 -20
-16 -57 0 -78 34 -21 33 -16 43 24 47 12 2 46 9 76 16 60 14 53 30 -13 30
l-40 0 26 28 c31 33 62 81 57 87 -3 2 -25 -13 -51 -33z"/>
<path d="M1750 3500 c-13 -9 -13 -10 0 -10 8 0 22 5 30 10 13 9 13 10 0 10 -8
0 -22 -5 -30 -10z"/>
<path d="M2212 3424 c17 -37 4 -54 -42 -54 -22 0 -40 5 -40 10 0 6 -4 10 -10
10 -5 0 -10 -7 -10 -15 0 -8 -8 -16 -17 -17 -10 0 -22 -2 -28 -3 -5 -2 -18 -3
-27 -4 -9 0 -24 -8 -33 -18 -14 -14 -18 -14 -26 -2 -5 8 -9 21 -9 29 0 13 1
13 10 0 5 -8 11 -12 14 -9 3 3 0 14 -8 24 -17 24 -38 10 -34 -22 3 -21 -3 -27
-49 -43 -37 -13 -54 -15 -62 -7 -8 8 -11 6 -11 -6 0 -9 -5 -17 -11 -17 -7 0
-9 10 -5 24 3 14 2 27 -3 30 -13 9 -22 -22 -15 -51 5 -18 3 -24 -5 -19 -6 4
-11 2 -11 -3 0 -6 -7 -11 -15 -11 -8 0 -15 -6 -15 -14 0 -12 -16 -16 -77 -18
-16 0 -20 -5 -15 -17 5 -14 4 -14 -12 -2 -13 11 -20 11 -28 3 -9 -9 -8 -12 5
-12 9 0 17 -4 17 -10 0 -5 -4 -10 -8 -10 -5 0 -22 -11 -38 -25 -16 -14 -37
-28 -46 -31 -10 -3 -18 -12 -18 -20 0 -8 -7 -17 -16 -21 -9 -3 -32 -22 -50
-42 -32 -34 -35 -35 -48 -18 -10 12 -16 15 -21 7 -4 -6 1 -17 11 -24 16 -12
17 -15 2 -30 -13 -13 -18 -13 -27 -2 -13 16 -54 29 -45 15 3 -5 11 -9 17 -9 7
0 20 -14 29 -31 17 -29 17 -30 0 -25 -13 4 -23 -1 -32 -19 -8 -15 -19 -23 -28
-20 -9 3 -12 -1 -7 -14 3 -11 -1 -25 -10 -34 -8 -9 -15 -19 -15 -23 0 -4 -10
-27 -21 -51 -20 -41 -22 -43 -39 -28 -16 15 -18 14 -24 -2 -4 -10 -1 -22 7
-28 15 -11 13 -59 -3 -80 -17 -22 -22 -76 -8 -92 11 -15 11 -16 -4 -10 -13 4
-18 1 -18 -9 0 -10 -6 -14 -15 -11 -8 4 -17 2 -21 -4 -4 -6 -12 -5 -22 3 -15
12 -16 11 -2 -6 13 -16 12 -20 -5 -32 -18 -14 -18 -14 3 -34 11 -11 26 -20 32
-20 12 0 13 -10 2 -27 -10 -16 -46 -11 -53 7 -5 11 -9 9 -17 -10 -7 -20 -6
-26 7 -32 12 -5 13 -7 2 -7 -11 -1 -10 -5 5 -16 19 -15 19 -15 0 -29 -16 -13
-16 -17 -5 -28 8 -7 20 -13 27 -14 28 -2 32 -5 32 -23 0 -11 -4 -23 -10 -26
-6 -4 -6 -12 0 -23 15 -27 28 -132 18 -138 -5 -3 -3 -13 5 -22 22 -26 31 -74
15 -83 -10 -7 -9 -9 3 -9 11 0 21 -16 29 -45 7 -25 17 -48 21 -51 5 -3 9 -14
9 -25 0 -17 -11 -24 -32 -20 -5 0 -8 -4 -8 -10 0 -6 11 -8 28 -4 26 5 30 2 53
-47 13 -29 26 -55 30 -58 3 -3 23 -32 44 -65 22 -33 47 -66 57 -73 29 -22 42
-53 27 -64 -11 -8 -10 -9 3 -4 26 8 81 -45 71 -70 -6 -17 -8 -17 -13 6 l-6 25
-6 -27 c-4 -22 -2 -26 15 -22 11 2 24 9 29 16 5 10 14 6 33 -14 14 -15 39 -35
55 -43 30 -15 39 -38 20 -50 -5 -3 -10 2 -10 11 0 10 -3 14 -7 11 -3 -4 -11
-3 -17 2 -7 6 -11 1 -12 -15 -2 -22 6 -29 29 -25 13 2 7 -14 -13 -31 -18 -16
-21 -15 -55 17 -19 19 -39 35 -43 35 -12 0 -127 102 -128 114 -1 6 -2 17 -3
24 0 7 -5 11 -10 8 -5 -3 -21 6 -35 21 -23 22 -29 25 -37 13 -16 -26 -10 -83
15 -135 76 -163 422 -345 759 -400 105 -17 109 -17 122 1 13 18 14 18 24 -8 6
-15 20 -37 31 -48 l21 -21 -50 -54 c-28 -30 -51 -61 -51 -69 0 -16 39 -80 66
-108 15 -16 15 -20 3 -35 -44 -55 -43 -85 1 -38 30 32 57 32 72 0 8 -19 14
-22 24 -14 11 9 10 16 -3 36 -16 24 -16 26 0 38 9 7 17 16 17 22 0 20 26 63
38 63 29 0 0 102 -39 134 -21 18 -26 29 -22 52 4 26 3 27 -10 11 -20 -24 -28
-22 -71 22 -49 51 -40 66 22 39 52 -24 202 -38 202 -20 0 6 15 8 38 5 74 -9
303 90 485 211 87 58 138 103 87 76 -14 -7 -43 -27 -65 -44 -54 -43 -96 -69
-102 -63 -2 3 7 13 22 24 128 89 157 127 169 217 3 27 12 62 20 77 14 28 13
29 -30 56 -24 15 -44 31 -44 34 0 3 12 10 28 15 25 9 28 7 37 -21 12 -36 28
-39 30 -7 2 31 23 43 58 36 20 -4 27 -2 27 9 0 10 -7 13 -20 10 -29 -8 -25 11
13 65 35 51 50 75 68 110 9 16 18 21 33 16 20 -6 21 -6 3 14 -15 16 -16 25 -8
41 6 11 11 31 11 44 0 24 27 57 47 57 6 0 13 -7 17 -15 3 -8 10 -15 15 -15 6
0 8 7 5 15 -5 12 -2 14 12 8 17 -6 17 -5 5 10 -7 9 -17 14 -22 11 -5 -3 -18
-2 -29 1 -16 5 -18 9 -8 25 7 10 16 16 20 14 4 -3 8 0 8 5 0 11 -13 15 -37 12
-17 -2 -17 14 0 31 7 7 18 25 24 40 8 18 18 26 27 22 12 -5 12 -9 0 -32 -21
-41 -19 -55 7 -41 14 7 19 17 16 30 -3 10 -1 19 4 19 15 0 -2 29 -22 35 -31
10 -24 45 9 46 23 2 24 2 5 6 -20 4 -23 11 -23 49 0 24 5 44 10 44 6 0 10 5
10 10 0 6 -6 10 -12 10 -9 0 -13 21 -13 70 0 39 3 70 7 70 5 0 8 5 8 10 0 6
-6 10 -14 10 -9 0 -14 9 -13 20 1 11 8 20 17 20 8 0 22 5 30 10 11 8 8 10 -15
8 -27 -3 -31 1 -45 40 -13 37 -13 44 0 52 19 12 31 3 23 -17 -6 -15 -5 -16 9
-3 11 11 13 19 6 28 -8 9 -5 12 11 12 11 0 21 5 21 10 0 14 -31 9 -49 -8 -24
-23 -45 -9 -54 36 -4 23 -13 42 -19 42 -7 0 -6 6 2 15 10 12 10 15 0 15 -7 0
-10 7 -6 15 3 8 0 15 -7 15 -13 0 -73 116 -71 137 1 6 -5 9 -12 6 -8 -3 -17 3
-21 13 -7 20 -8 21 -49 69 -54 64 -57 71 -39 99 11 16 13 26 6 26 -6 0 -11 -7
-11 -15 0 -21 -26 -19 -60 7 -34 25 -36 31 -14 52 8 9 11 16 6 16 -5 0 -15 -7
-22 -15 -11 -13 -15 -14 -29 -1 -30 26 -152 106 -162 106 -5 0 -12 6 -15 14
-3 8 -17 17 -32 21 -23 6 -24 8 -10 16 10 5 15 16 12 24 -4 9 0 15 9 15 8 0
18 7 21 16 6 15 4 15 -16 1 -13 -8 -22 -23 -21 -34 1 -17 1 -17 -11 0 -17 22
-22 22 -29 -5 -6 -22 -6 -22 -28 -2 -11 10 -22 17 -23 15 -2 -5 -86 22 -86 28
0 3 -15 7 -34 8 -27 1 -35 -3 -40 -20 -3 -12 -9 -18 -13 -13 -8 8 -9 13 -12
41 0 9 -11 15 -25 15 -13 0 -26 7 -30 15 -7 18 -26 20 -26 3 0 -9 -16 -12 -55
-10 -30 2 -55 8 -55 13 0 4 -7 6 -15 3 -10 -4 -15 0 -15 11 0 11 5 15 15 12 8
-4 17 -1 21 5 5 7 2 8 -6 3 -10 -6 -12 -4 -7 8 6 16 5 16 -18 1 -14 -9 -24
-24 -23 -33 2 -10 -5 -17 -19 -19 -21 -3 -23 1 -23 36 0 26 -4 39 -14 39 -11
0 -12 -5 -4 -23z m-2 -90 c0 -8 -4 -12 -10 -9 -5 3 -10 13 -10 21 0 8 5 12 10
9 6 -3 10 -13 10 -21z m-83 -46 c-3 -8 -6 -5 -6 6 -1 11 2 17 5 13 3 -3 4 -12
1 -19z m493 3 c0 -6 -4 -13 -10 -16 -5 -3 -10 1 -10 9 0 9 5 16 10 16 6 0 10
-4 10 -9z m-340 -81 c5 0 12 5 15 10 4 6 11 8 16 4 6 -4 6 -10 -1 -19 -8 -9 2
-23 37 -54 61 -53 70 -61 80 -62 4 0 25 -23 46 -51 l39 -50 19 21 c17 18 49
20 49 1 0 -16 -44 -45 -64 -42 -16 3 -18 1 -10 -8 6 -6 31 -14 55 -17 26 -4
50 -14 61 -27 l17 -21 1 21 c0 22 30 37 55 28 15 -6 35 -48 35 -74 0 -13 5
-18 15 -14 20 8 19 -5 -2 -28 -25 -28 -8 -33 28 -7 l32 23 24 -30 c14 -16 32
-40 41 -54 9 -14 27 -33 39 -43 13 -10 23 -25 23 -33 0 -8 4 -14 9 -14 6 0 80
-87 114 -134 4 -7 14 -2 26 14 27 35 36 19 12 -20 -14 -24 -17 -39 -11 -56 10
-25 4 -54 -11 -54 -5 0 -9 5 -9 10 0 6 -6 10 -14 10 -8 0 -17 -15 -20 -35 -4
-19 -11 -35 -15 -35 -14 0 -29 -76 -19 -94 15 -27 2 -49 -21 -37 -23 13 -81
-13 -81 -36 0 -8 -9 -17 -20 -20 -11 -3 -20 -11 -20 -19 0 -8 -16 -20 -35 -28
-20 -9 -35 -22 -35 -32 0 -10 -5 -14 -14 -11 -7 3 -30 -12 -52 -35 -22 -22
-56 -49 -78 -61 -21 -12 -55 -31 -75 -42 -20 -11 -52 -32 -72 -47 -20 -16 -39
-28 -43 -28 -20 0 -65 -42 -59 -56 4 -12 -2 -13 -36 -8 -28 4 -46 2 -57 -7
-12 -10 -17 -10 -23 0 -5 8 -16 -1 -35 -29 -14 -22 -28 -40 -31 -40 -3 0 -2
17 1 38 7 44 29 82 48 82 8 0 13 8 12 18 0 10 7 18 19 18 11 1 26 2 33 3 20 2
13 21 -8 21 -11 0 -20 4 -20 8 0 15 36 42 45 35 4 -5 5 20 2 55 -7 68 -4 72
48 52 24 -9 27 -7 37 20 5 17 14 30 19 30 21 0 24 2 32 22 5 14 13 19 26 15
20 -5 35 22 31 53 -2 11 3 10 21 -5 20 -18 22 -18 16 -2 -8 22 10 60 24 51 6
-3 15 8 22 25 6 17 18 31 27 31 9 0 21 5 28 12 9 9 15 9 24 0 17 -17 31 -15
25 2 -4 9 8 27 29 46 28 24 39 28 54 20 26 -14 35 -12 21 4 -13 15 4 26 40 26
10 0 19 7 19 15 0 8 6 14 13 12 6 -1 12 5 12 13 0 9 -7 14 -17 12 -19 -3 -25
22 -8 33 17 11 -1 36 -22 29 -12 -3 -27 1 -39 12 -24 21 -25 44 -1 44 12 0 10
4 -8 13 -14 7 -26 9 -28 5 -2 -4 -10 -8 -18 -8 -8 0 -14 -4 -14 -10 0 -18 -22
-10 -27 10 -3 11 -9 20 -14 20 -5 0 -6 7 -3 15 5 11 2 13 -10 9 -12 -5 -16 0
-16 17 0 25 -56 72 -82 69 -27 -4 -58 13 -58 31 0 11 -4 19 -9 19 -15 0 -91
77 -91 93 0 18 18 33 45 39 16 3 15 5 -7 10 -20 4 -28 1 -28 -8 0 -13 -10 -17
-27 -11 -5 1 -7 6 -5 11 1 4 -9 5 -23 2 -23 -6 -26 -4 -20 14 4 11 2 20 -4 20
-6 0 -11 -4 -11 -10 0 -5 -7 -10 -15 -10 -16 0 -20 16 -6 24 10 6 2 56 -9 56
-4 0 -12 12 -19 27 -22 47 -71 102 -86 96 -16 -6 -18 -2 -9 21 4 11 12 13 29
6 20 -8 23 -6 22 18 -1 15 -6 30 -11 33 -5 4 -5 13 0 20 7 11 9 10 12 -3 2
-10 7 -18 12 -18z m580 -25 c0 -8 -7 -15 -15 -15 -8 0 -15 7 -15 15 0 8 7 15
15 15 8 0 15 -7 15 -15z m-320 -40 c0 -8 -4 -15 -9 -15 -13 0 -22 16 -14 24
11 11 23 6 23 -9z m-80 -25 c0 -5 -4 -10 -10 -10 -5 0 -10 5 -10 10 0 6 5 10
10 10 6 0 10 -4 10 -10z m60 -66 c0 -8 -5 -12 -10 -9 -6 4 -8 11 -5 16 9 14
15 11 15 -7z m-942 -42 c3 -9 -2 -13 -14 -10 -9 1 -19 9 -22 16 -3 9 2 13 14
10 9 -1 19 -9 22 -16z m682 8 c0 -5 -2 -10 -4 -10 -3 0 -8 5 -11 10 -3 6 -1
10 4 10 6 0 11 -4 11 -10z m390 -46 c0 -8 -4 -12 -10 -9 -5 3 -10 13 -10 21 0
8 5 12 10 9 6 -3 10 -13 10 -21z m202 -16 c-9 -9 -15 -9 -24 0 -9 9 -7 12 12
12 19 0 21 -3 12 -12z m-1145 -72 c-4 -9 -11 -16 -17 -16 -17 0 -24 31 -9 41
18 11 34 -5 26 -25z m-217 -11 c7 -8 9 -15 6 -15 -4 0 -14 7 -22 15 -9 8 -11
15 -6 15 5 0 15 -7 22 -15z m1610 -9 c0 -3 -4 -8 -10 -11 -5 -3 -10 -1 -10 4
0 6 5 11 10 11 6 0 10 -2 10 -4z m-1250 -10 c0 -3 -4 -8 -10 -11 -5 -3 -10 -1
-10 4 0 6 5 11 10 11 6 0 10 -2 10 -4z m195 -16 c3 -5 1 -10 -4 -10 -6 0 -11
5 -11 10 0 6 2 10 4 10 3 0 8 -4 11 -10z m1115 -36 c0 -27 -15 -32 -24 -9 -7
19 3 47 15 39 5 -3 9 -16 9 -30z m-207 -19 c1 -5 -6 -11 -15 -13 -11 -2 -18 3
-18 13 0 17 30 18 33 0z m277 5 c0 -5 -4 -10 -10 -10 -5 0 -10 5 -10 10 0 6 5
10 10 10 6 0 10 -4 10 -10z m-1802 -28 c2 -7 -3 -12 -12 -12 -9 0 -16 7 -16
16 0 17 22 14 28 -4z m971 -28 c-14 -18 -24 -11 -15 11 3 9 11 13 16 10 8 -5
7 -11 -1 -21z m551 16 c0 -5 -5 -10 -11 -10 -5 0 -7 5 -4 10 3 6 8 10 11 10 2
0 4 -4 4 -10z m-1175 -19 c3 -5 1 -12 -5 -16 -5 -3 -10 1 -10 9 0 18 6 21 15
7z m-275 -5 c0 -3 -4 -8 -10 -11 -5 -3 -10 -1 -10 4 0 6 5 11 10 11 6 0 10 -2
10 -4z m818 -20 c3 -12 -1 -17 -10 -14 -7 3 -15 13 -16 22 -3 12 1 17 10 14 7
-3 15 -13 16 -22z m-623 4 c3 -5 -1 -10 -9 -10 -8 0 -18 5 -21 10 -3 6 1 10 9
10 8 0 18 -4 21 -10z m1407 -5 c0 -5 -5 -11 -11 -13 -6 -2 -11 4 -11 13 0 9 5
15 11 13 6 -2 11 -8 11 -13z m-1527 -15 c-3 -5 -10 -10 -16 -10 -5 0 -9 5 -9
10 0 6 7 10 16 10 8 0 12 -4 9 -10z m1023 -17 c-3 -31 -34 -44 -44 -19 -7 17
14 45 34 46 9 0 12 -10 10 -27z m-263 -13 c3 -5 12 -7 20 -3 18 6 19 -3 4 -46
-6 -17 -19 -36 -29 -41 -10 -5 -26 -31 -36 -57 -21 -58 -32 -73 -60 -84 -13
-4 -33 -30 -48 -61 l-25 -53 22 -12 c17 -9 18 -12 5 -13 -9 0 -30 -11 -46 -25
-17 -14 -33 -25 -37 -25 -4 0 -30 -20 -58 -44 -53 -44 -141 -96 -164 -96 -7 0
-13 -4 -13 -10 0 -5 6 -7 14 -4 18 7 32 -16 16 -26 -11 -7 -10 -12 3 -25 21
-20 21 -25 2 -25 -9 0 -20 11 -25 25 -5 14 -14 25 -20 25 -7 0 -9 9 -5 23 6
21 6 21 -14 -3 -23 -28 -26 -40 -11 -40 19 0 10 -21 -15 -32 -24 -11 -24 -12
-8 -31 10 -11 35 -30 55 -43 21 -13 37 -29 35 -34 -1 -6 14 -20 34 -33 20 -12
67 -43 105 -69 48 -34 70 -44 76 -35 6 9 10 9 20 -1 10 -10 10 -14 0 -21 -8
-5 2 -18 34 -42 46 -34 69 -63 69 -86 0 -7 3 -12 7 -10 12 4 47 -35 41 -48 -2
-8 -1 -20 3 -27 5 -7 10 -22 12 -33 1 -11 14 -29 28 -40 20 -16 27 -33 33 -80
4 -33 15 -74 24 -92 10 -19 13 -34 7 -38 -10 -6 -30 25 -30 48 0 8 -7 20 -15
27 -8 7 -15 21 -15 31 0 11 -4 19 -10 19 -5 0 -10 7 -10 15 0 15 -11 19 -38
16 -18 -3 -43 19 -36 30 3 5 -2 9 -12 9 -14 0 -16 7 -11 45 7 48 6 50 -23 35
-14 -7 -23 -6 -33 4 -8 9 -24 12 -36 9 -15 -4 -21 -1 -21 11 0 10 -4 15 -9 11
-6 -3 -13 1 -18 9 -6 12 -17 13 -46 7 -21 -5 -39 -5 -43 0 -3 5 0 9 5 9 6 0
11 7 11 15 0 8 -7 15 -15 15 -18 0 -20 16 -2 24 10 5 10 7 0 12 -7 3 -13 12
-13 20 0 8 -6 11 -16 7 -8 -3 -13 -12 -10 -20 4 -8 3 -20 -1 -26 -4 -7 -9 -3
-13 9 -4 10 -15 19 -25 19 -15 0 -19 8 -19 40 -1 31 -5 40 -21 43 -11 3 -24
11 -30 19 -8 11 -22 12 -69 5 -51 -8 -57 -7 -53 7 4 18 -15 41 -33 41 -6 0 -8
5 -5 10 3 6 -1 10 -10 10 -14 0 -15 9 -11 60 5 49 3 60 -9 60 -8 0 -15 -6 -15
-14 0 -14 -45 -52 -88 -75 -46 -24 -33 -2 27 46 61 48 80 80 40 68 -31 -10
-62 31 -55 74 3 18 12 41 21 51 8 9 15 25 15 34 0 12 5 16 15 12 9 -3 23 6 37
24 13 18 31 30 44 30 14 0 36 15 57 40 19 22 39 40 46 40 8 0 9 6 3 18 -12 21
1 58 25 70 10 5 33 10 52 10 19 0 37 5 40 10 3 5 17 15 29 21 l24 13 -21 19
c-12 11 -21 26 -21 34 0 33 55 20 68 -16 7 -19 11 -17 48 18 84 79 115 103
142 109 48 10 54 14 48 29 -4 11 2 15 19 15 16 0 25 6 25 16 0 11 6 15 20 11
11 -3 20 -1 20 4 0 12 17 12 25 -1z m296 -13 c-13 -13 -26 -3 -16 12 3 6 11 8
17 5 6 -4 6 -10 -1 -17z m-1091 -13 c0 -14 -4 -23 -10 -19 -5 3 -10 15 -10 26
0 10 5 19 10 19 6 0 10 -12 10 -26z m-161 -5 c-22 -13 -31 -11 -17 5 7 8 17
12 22 9 4 -3 2 -9 -5 -14z m191 1 c0 -5 -4 -10 -10 -10 -5 0 -10 5 -10 10 0 6
5 10 10 10 6 0 10 -4 10 -10z m-265 -10 c3 -5 1 -10 -4 -10 -6 0 -11 5 -11 10
0 6 2 10 4 10 3 0 8 -4 11 -10z m879 -5 c-4 -8 -10 -15 -15 -15 -5 0 -9 7 -9
15 0 8 7 15 15 15 9 0 12 -6 9 -15z m-390 -56 c-3 -5 -10 -7 -15 -3 -5 3 -7
10 -3 15 3 5 10 7 15 3 5 -3 7 -10 3 -15z m616 -3 c0 -11 -19 -15 -25 -6 -3 5
1 10 9 10 9 0 16 -2 16 -4z m380 -6 c0 -5 -4 -10 -10 -10 -5 0 -10 5 -10 10 0
6 5 10 10 10 6 0 10 -4 10 -10z m-430 -31 c0 -24 -23 -21 -28 4 -2 10 3 17 12
17 10 0 16 -9 16 -21z m-720 1 c0 -5 -4 -10 -10 -10 -5 0 -10 5 -10 10 0 6 5
10 10 10 6 0 10 -4 10 -10z m1165 -10 c3 -6 -1 -13 -10 -16 -19 -8 -30 0 -20
15 8 14 22 14 30 1z m355 6 c0 -3 -4 -8 -10 -11 -5 -3 -10 -1 -10 4 0 6 5 11
10 11 6 0 10 -2 10 -4z m-50 -21 c0 -8 -4 -15 -10 -15 -5 0 -10 7 -10 15 0 8
5 15 10 15 6 0 10 -7 10 -15z m-1805 -6 c10 -15 -1 -23 -20 -15 -9 3 -13 10
-10 16 8 13 22 13 30 -1z m1445 -4 c14 -17 7 -45 -13 -45 -21 0 -35 20 -30 41
6 23 26 25 43 4z m-258 -10 c0 -5 -5 -11 -11 -13 -6 -2 -11 4 -11 13 0 9 5 15
11 13 6 -2 11 -8 11 -13z m-1322 -11 c0 -17 -22 -14 -28 4 -2 7 3 12 12 12 9
0 16 -7 16 -16z m740 -20 c0 -9 -5 -14 -12 -12 -18 6 -21 28 -4 28 9 0 16 -7
16 -16z m-590 -14 c0 -5 -4 -10 -10 -10 -5 0 -10 5 -10 10 0 6 5 10 10 10 6 0
10 -4 10 -10z m1320 2 c0 -13 -12 -22 -22 -16 -10 6 -1 24 13 24 5 0 9 -4 9
-8z m-1340 -36 c0 -3 -4 -8 -10 -11 -5 -3 -10 -1 -10 4 0 6 5 11 10 11 6 0 10
-2 10 -4z m510 -4 c0 -13 -12 -22 -22 -16 -10 6 -1 24 13 24 5 0 9 -4 9 -8z
m440 -13 c0 -5 -4 -9 -10 -9 -5 0 -10 7 -10 16 0 8 5 12 10 9 6 -3 10 -10 10
-16z m437 6 c3 -9 3 -19 -1 -22 -7 -7 -36 16 -36 28 0 15 30 10 37 -6z m523 0
c0 -8 -7 -15 -15 -15 -8 0 -15 7 -15 15 0 8 7 15 15 15 8 0 15 -7 15 -15z
m-790 -15 c0 -5 -4 -10 -10 -10 -5 0 -10 5 -10 10 0 6 5 10 10 10 6 0 10 -4
10 -10z m70 -10 c0 -13 -5 -18 -15 -14 -16 7 -19 17 -8 27 12 13 23 7 23 -13z
m-1350 -20 c0 -5 -7 -7 -15 -4 -8 4 -15 8 -15 10 0 2 7 4 15 4 8 0 15 -4 15
-10z m2050 1 c0 -6 -4 -13 -10 -16 -5 -3 -10 1 -10 9 0 9 5 16 10 16 6 0 10
-4 10 -9z m-824 -38 c-11 -11 -19 6 -11 24 8 17 8 17 12 0 3 -10 2 -21 -1 -24z
m-1221 -14 c0 -14 -7 -25 -16 -27 -12 -2 -15 4 -11 28 5 36 27 35 27 -1z m595
5 c0 -16 -16 -19 -25 -4 -8 13 4 32 16 25 5 -4 9 -13 9 -21z m1308 -3 c3 -8
-1 -12 -9 -9 -7 2 -15 10 -17 17 -3 8 1 12 9 9 7 -2 15 -10 17 -17z m-1748
-37 c0 -9 -5 -14 -12 -12 -18 6 -21 28 -4 28 9 0 16 -7 16 -16z m390 4 c0 -29
-17 -41 -39 -29 -26 14 -27 28 -3 34 32 8 42 7 42 -5z m809 -1 c6 -8 8 -17 4
-20 -7 -8 -33 11 -33 24 0 13 16 11 29 -4z m-1059 -6 c0 -6 -4 -13 -10 -16 -5
-3 -10 1 -10 9 0 9 5 16 10 16 6 0 10 -4 10 -9z m738 -10 c3 -8 -1 -12 -9 -9
-7 2 -15 10 -17 17 -3 8 1 12 9 9 7 -2 15 -10 17 -17z m109 -3 c-3 -8 -6 -5
-6 6 -1 11 2 17 5 13 3 -3 4 -12 1 -19z m-39 -61 c2 -10 -3 -17 -12 -17 -18 0
-29 16 -21 31 9 14 29 6 33 -14z m1112 13 c0 -5 -4 -10 -10 -10 -5 0 -10 5
-10 10 0 6 5 10 10 10 6 0 10 -4 10 -10z m-1790 -65 c0 -8 -7 -15 -15 -15 -16
0 -20 12 -8 23 11 12 23 8 23 -8z m620 -5 c0 -5 -2 -10 -4 -10 -3 0 -8 5 -11
10 -3 6 -1 10 4 10 6 0 11 -4 11 -10z m-172 -27 c-5 -25 -28 -28 -28 -4 0 12
6 21 16 21 9 0 14 -7 12 -17z m-80 -12 c3 -8 -1 -12 -9 -9 -7 2 -15 10 -17 17
-3 8 1 12 9 9 7 -2 15 -10 17 -17z m270 -4 c2 -10 -3 -17 -12 -17 -10 0 -16 9
-16 21 0 24 23 21 28 -4z m1000 -5 c2 -7 -3 -12 -12 -12 -9 0 -16 7 -16 16 0
17 22 14 28 -4z m-1888 -12 c0 -11 -7 -20 -15 -20 -15 0 -21 21 -8 33 12 13
23 7 23 -13z m1838 -13 c4 -20 -25 -34 -40 -19 -15 15 -1 44 19 40 10 -2 19
-11 21 -21z m-273 -28 c9 -27 -12 -50 -25 -29 -14 22 -12 50 4 50 8 0 18 -9
21 -21z m-135 -8 c7 -14 7 -22 0 -26 -13 -8 -40 13 -40 31 0 21 28 17 40 -5z
m-1210 -46 c7 -9 21 -13 31 -10 31 10 22 -14 -13 -35 -34 -21 -48 -19 -29 4 9
11 7 15 -9 19 -22 6 -28 37 -6 37 7 0 19 -7 26 -15z m1798 -17 c-4 -38 -22
-47 -38 -18 -15 28 -6 50 20 50 18 0 21 -5 18 -32z m-703 4 c0 -18 -20 -15
-23 4 -3 10 1 15 10 12 7 -3 13 -10 13 -16z m-675 -18 c0 -8 -5 -12 -10 -9 -6
4 -8 11 -5 16 9 14 15 11 15 -7z m57 -31 c-3 -3 -11 -2 -17 2 -9 6 -9 10 1 16
14 8 27 -7 16 -18z m228 17 c3 -5 -1 -10 -9 -10 -9 0 -16 5 -16 10 0 6 4 10 9
10 6 0 13 -4 16 -10z m-778 -36 c-9 -9 -28 6 -21 18 4 6 10 6 17 -1 6 -6 8
-13 4 -17z m543 -12 c0 -13 -12 -22 -22 -16 -10 6 -1 24 13 24 5 0 9 -4 9 -8z
m-760 -6 c0 -3 -4 -8 -10 -11 -5 -3 -10 -1 -10 4 0 6 5 11 10 11 6 0 10 -2 10
-4z m1430 -10 c0 -3 -4 -8 -10 -11 -5 -3 -10 -1 -10 4 0 6 5 11 10 11 6 0 10
-2 10 -4z m-165 -16 c3 -5 1 -10 -4 -10 -6 0 -11 5 -11 10 0 6 2 10 4 10 3 0
8 -4 11 -10z m483 -48 c3 -19 -1 -23 -15 -20 -10 2 -19 14 -21 26 -3 19 1 23
15 20 10 -2 19 -14 21 -26z m144 13 c0 -5 -5 -11 -11 -13 -6 -2 -11 4 -11 13
0 9 5 15 11 13 6 -2 11 -8 11 -13z m-1792 -25 c0 -5 -7 -7 -15 -4 -8 4 -12 10
-9 15 6 11 24 2 24 -11z m1744 -1 c-3 -5 -10 -7 -15 -3 -5 3 -7 10 -3 15 3 5
10 7 15 3 5 -3 7 -10 3 -15z m-1402 -41 c-15 -15 -26 -4 -18 18 5 13 9 15 18
6 9 -9 9 -15 0 -24z m106 -5 c-5 -25 -28 -28 -28 -4 0 12 6 21 16 21 9 0 14
-7 12 -17z m462 -14 c0 -12 -27 -11 -35 1 -11 17 5 32 21 19 8 -6 14 -15 14
-20z m954 16 c-4 -8 -8 -15 -10 -15 -2 0 -4 7 -4 15 0 8 4 15 10 15 5 0 7 -7
4 -15z m-1384 -5 c0 -5 -4 -10 -10 -10 -5 0 -10 5 -10 10 0 6 5 10 10 10 6 0
10 -4 10 -10z m40 -15 c0 -8 -4 -15 -9 -15 -13 0 -22 16 -14 24 11 11 23 6 23
-9z m510 5 c0 -5 -4 -10 -10 -10 -5 0 -10 5 -10 10 0 6 5 10 10 10 6 0 10 -4
10 -10z m-180 -20 c0 -5 -4 -10 -10 -10 -5 0 -10 5 -10 10 0 6 5 10 10 10 6 0
10 -4 10 -10z m250 -4 c0 -3 -4 -8 -10 -11 -5 -3 -10 -1 -10 4 0 6 5 11 10 11
6 0 10 -2 10 -4z m624 -17 c-3 -5 -10 -7 -15 -3 -5 3 -7 10 -3 15 3 5 10 7 15
3 5 -3 7 -10 3 -15z m-1230 2 c3 -5 -1 -12 -10 -15 -22 -9 -24 -8 -24 9 0 16
25 21 34 6z m-224 -15 c0 -19 -31 -30 -41 -14 -4 6 -5 16 -3 20 9 14 44 9 44
-6z m1100 -6 c0 -5 -5 -10 -11 -10 -5 0 -7 5 -4 10 3 6 8 10 11 10 2 0 4 -4 4
-10z m168 -22 c-6 -16 -48 -21 -48 -5 0 7 12 14 26 15 16 1 24 -3 22 -10z
m-1253 -7 c7 -12 -12 -24 -25 -16 -11 7 -4 25 10 25 5 0 11 -4 15 -9z m1345
-21 c0 -23 -25 -27 -33 -6 -7 16 1 26 20 26 7 0 13 -9 13 -20z m-1300 -10 c0
-5 -2 -10 -4 -10 -3 0 -8 5 -11 10 -3 6 -1 10 4 10 6 0 11 -4 11 -10z m1438
-1 c-2 -6 -8 -10 -13 -10 -5 0 -11 4 -13 10 -2 6 4 11 13 11 9 0 15 -5 13 -11z
m-761 -35 c-9 -9 -28 6 -21 18 4 6 10 6 17 -1 6 -6 8 -13 4 -17z m-827 -19 c0
-8 -7 -15 -15 -15 -8 0 -15 7 -15 15 0 8 7 15 15 15 8 0 15 -7 15 -15z m485
-15 c-3 -5 -11 -10 -16 -10 -6 0 -7 5 -4 10 3 6 11 10 16 10 6 0 7 -4 4 -10z
m60 -16 c0 -10 -8 -20 -18 -22 -22 -4 -35 27 -16 39 20 12 34 5 34 -17z m293
6 c-14 -23 -38 -27 -38 -7 0 19 10 27 32 27 16 0 16 -3 6 -20z m-758 -16 c0
-8 -9 -14 -20 -14 -22 0 -28 26 -7 33 16 6 27 -1 27 -19z m240 16 c0 -5 -7
-10 -15 -10 -8 0 -15 5 -15 10 0 6 7 10 15 10 8 0 15 -4 15 -10z m901 -13 c-1
-12 -15 -9 -19 4 -3 6 1 10 8 8 6 -3 11 -8 11 -12z m251 -39 c-15 -15 -26 -4
-18 18 5 13 9 15 18 6 9 -9 9 -15 0 -24z m-412 13 c0 -11 -26 -22 -34 -14 -12
12 -5 23 14 23 11 0 20 -4 20 -9z m520 -20 c-1 -14 -41 -52 -51 -49 -8 3 -7 9
4 20 9 8 14 18 11 21 -11 10 6 26 21 20 8 -3 15 -8 15 -12z m-1137 -11 c6 -25
-5 -32 -38 -24 -27 7 -35 24 -10 24 8 0 15 5 15 10 0 19 28 10 33 -10z m815
-8 c2 -7 -3 -12 -12 -12 -9 0 -16 7 -16 16 0 17 22 14 28 -4z m177 -22 c-3 -5
-11 -10 -16 -10 -6 0 -7 5 -4 10 3 6 11 10 16 10 6 0 7 -4 4 -10z m98 -81 c9
-10 17 -20 17 -22 0 -11 -39 -14 -49 -4 -8 8 -14 8 -23 -1 -9 -9 -8 -12 5 -12
11 0 14 -5 10 -16 -3 -8 -12 -13 -19 -10 -12 5 -19 -11 -16 -36 1 -3 -14 -13
-33 -22 -19 -10 -35 -22 -35 -28 0 -6 -6 -6 -16 3 -8 7 -35 14 -60 15 -44 3
-44 3 -29 -19 20 -29 19 -37 -6 -37 -15 0 -19 5 -15 15 3 9 0 15 -9 15 -20 0
-19 -29 0 -36 8 -4 12 -10 9 -16 -8 -12 -55 -32 -71 -29 -7 1 -13 -3 -13 -9 0
-5 -7 -10 -15 -10 -8 0 -15 9 -15 19 0 25 -16 36 -24 16 -3 -8 -1 -15 4 -15 6
0 10 -6 10 -14 0 -16 -37 -29 -45 -16 -8 13 -77 -30 -82 -51 -6 -21 -30 -32
-38 -18 -4 5 -3 18 0 29 7 24 -7 26 -25 5 -7 -8 -22 -15 -33 -15 -18 0 -17 3
9 27 l29 26 -28 -7 c-16 -4 -27 -2 -27 4 0 5 7 10 15 10 11 0 12 5 5 25 -9 24
-8 25 30 23 22 -1 40 -6 40 -11 0 -5 12 -7 26 -4 16 3 28 0 31 -9 8 -21 20
-17 26 8 9 33 -2 41 -30 23 -18 -12 -28 -14 -36 -6 -7 7 -6 12 4 16 121 44
136 44 145 8 7 -26 7 -26 15 -5 5 12 6 28 3 36 -3 7 3 16 12 20 22 8 33 -2 14
-14 -11 -7 -11 -10 -2 -10 7 0 17 11 22 25 5 14 13 25 17 26 30 3 48 10 67 27
36 32 46 35 61 16 21 -27 18 -35 -8 -25 -17 7 -24 6 -24 -4 0 -7 6 -11 14 -8
7 3 13 1 13 -5 0 -13 40 -3 62 16 21 17 20 72 -1 64 -20 -8 4 33 31 52 23 17
48 9 81 -25z m-883 15 c0 -9 -5 -14 -12 -12 -18 6 -21 28 -4 28 9 0 16 -7 16
-16z m-360 -9 c0 -8 -4 -15 -10 -15 -5 0 -10 7 -10 15 0 8 5 15 10 15 6 0 10
-7 10 -15z m468 -14 c3 -19 0 -22 -16 -17 -13 5 -22 1 -26 -10 -5 -13 -9 -15
-18 -6 -9 9 -6 18 12 37 28 29 44 28 48 -4z m324 -6 c0 -5 -5 -11 -11 -13 -6
-2 -11 4 -11 13 0 9 5 15 11 13 6 -2 11 -8 11 -13z m339 -54 c-17 -11 -48 -3
-55 15 -3 7 3 18 12 23 23 13 65 -25 43 -38z m-636 9 c-5 -8 -11 -8 -17 -2 -6
6 -7 16 -3 22 5 8 11 8 17 2 6 -6 7 -16 3 -22z m145 1 c0 -24 -18 -37 -31 -24
-13 13 -1 43 17 43 8 0 14 -9 14 -19z m-765 -12 c4 -12 13 -18 20 -15 8 3 28
-2 45 -11 26 -12 31 -20 27 -40 -4 -24 -4 -24 17 -4 17 16 23 17 33 6 7 -7 30
-16 52 -20 27 -4 42 -13 46 -26 7 -21 20 -25 30 -9 4 7 12 7 24 0 10 -5 20 -7
23 -5 9 9 67 -17 65 -28 -1 -6 8 -13 21 -15 14 -2 22 2 22 11 0 10 7 13 20 10
11 -3 20 -10 20 -15 0 -7 4 -7 13 0 6 5 31 10 55 10 31 1 42 -3 42 -15 0 -9
-6 -13 -14 -10 -8 3 -17 -1 -20 -9 -7 -17 17 -29 40 -20 11 4 14 13 10 31 -6
24 -5 25 49 25 34 0 55 -4 55 -11 0 -6 -9 -9 -20 -6 -11 3 -20 1 -20 -4 0 -5
4 -9 9 -9 5 0 7 -9 4 -21 -4 -13 -11 -18 -21 -14 -12 4 -13 3 -2 -10 15 -18
30 -20 30 -4 0 6 9 23 20 39 11 15 17 30 13 34 -3 3 -1 6 5 6 12 0 16 -12 13
-42 -1 -9 3 -19 9 -23 8 -5 4 -12 -9 -22 -12 -8 -26 -11 -31 -8 -6 4 -18 1
-26 -6 -13 -10 -17 -10 -23 0 -11 17 -16 18 -32 4 -20 -16 -80 -14 -101 4 -16
14 -16 17 -1 39 8 13 11 24 5 24 -5 0 -12 -9 -15 -20 -6 -25 -24 -26 -30 -2
-3 12 -7 8 -12 -14 -7 -30 -8 -31 -53 -27 -26 3 -54 7 -62 10 -8 3 -23 5 -32
4 -10 -1 -18 1 -18 6 0 4 -17 9 -38 11 -20 1 -38 7 -40 12 -2 6 -15 10 -28 10
-14 0 -24 6 -24 14 0 8 -4 18 -10 21 -6 3 -7 -1 -4 -9 3 -9 1 -16 -5 -16 -6 0
-11 4 -11 10 0 5 -15 12 -34 16 -19 3 -42 14 -52 25 -9 10 -21 16 -25 13 -5
-3 -16 2 -25 10 -8 9 -22 16 -30 16 -8 0 -14 7 -14 15 0 8 9 15 20 15 12 0 20
7 20 16 0 14 -3 14 -15 4 -20 -17 -32 -5 -15 15 10 12 10 15 0 15 -10 0 -10 3
0 15 17 21 27 19 35 -6z m983 8 c14 -17 5 -54 -15 -61 -36 -14 -59 44 -25 63
23 14 28 13 40 -2z m372 3 c0 -5 -4 -10 -10 -10 -5 0 -10 5 -10 10 0 6 5 10
10 10 6 0 10 -4 10 -10z m-850 -4 c0 -3 -4 -8 -10 -11 -5 -3 -10 -1 -10 4 0 6
5 11 10 11 6 0 10 -2 10 -4z m237 -72 c-9 -9 -28 6 -21 18 4 6 10 6 17 -1 6
-6 8 -13 4 -17z m-47 2 c0 -8 -4 -17 -9 -21 -12 -7 -24 12 -16 25 9 15 25 12
25 -4z m472 -48 c-7 -7 -12 -8 -12 -2 0 14 12 26 19 19 2 -3 -1 -11 -7 -17z
m-26 -59 c3 -6 1 -16 -5 -22 -9 -9 -14 -8 -21 3 -5 8 -10 18 -10 23 0 11 28 8
36 -4z m-38 -22 c2 -12 -1 -15 -12 -11 -19 7 -22 38 -3 32 6 -3 13 -12 15 -21z
m-613 -47 c3 -5 1 -10 -4 -10 -6 0 -11 5 -11 10 0 6 2 10 4 10 3 0 8 -4 11
-10z m-195 -20 c0 -5 -4 -10 -10 -10 -5 0 -10 5 -10 10 0 6 5 10 10 10 6 0 10
-4 10 -10z m700 -10 c0 -5 -4 -10 -10 -10 -5 0 -10 5 -10 10 0 6 5 10 10 10 6
0 10 -4 10 -10z m-352 -32 c5 -24 -17 -22 -48 2 l-25 21 35 -3 c24 -2 36 -9
38 -20z m-26 -166 c7 -11 23 -24 34 -30 30 -16 28 -60 -4 -94 -14 -16 -32 -28
-39 -28 -7 0 -13 -4 -13 -10 0 -18 -18 -11 -25 10 -3 11 -13 20 -21 20 -8 0
-14 7 -14 15 0 8 -4 15 -9 15 -5 0 -12 8 -15 17 -5 11 7 30 36 60 23 24 45 43
50 43 4 0 13 -8 20 -18z"/>
<path d="M2427 3001 c-17 -6 -18 -8 -3 -21 13 -10 20 -10 28 -2 16 16 -2 32
-25 23z"/>
<path d="M2580 2820 c0 -5 5 -10 10 -10 6 0 10 5 10 10 0 6 -4 10 -10 10 -5 0
-10 -4 -10 -10z"/>
<path d="M2638 2803 c7 -3 16 -2 19 1 4 3 -2 6 -13 5 -11 0 -14 -3 -6 -6z"/>
<path d="M2588 2003 c7 -3 16 -2 19 1 4 3 -2 6 -13 5 -11 0 -14 -3 -6 -6z"/>
<path d="M2480 1960 c0 -5 7 -10 15 -10 8 0 15 5 15 10 0 6 -7 10 -15 10 -8 0
-15 -4 -15 -10z"/>
<path d="M2060 1690 c0 -5 7 -10 15 -10 8 0 15 5 15 10 0 6 -7 10 -15 10 -8 0
-15 -4 -15 -10z"/>
<path d="M3000 1350 c0 -5 5 -10 10 -10 6 0 10 5 10 10 0 6 -4 10 -10 10 -5 0
-10 -4 -10 -10z"/>
<path d="M2976 1342 c-3 -6 -1 -14 5 -17 15 -10 25 3 12 16 -7 7 -13 7 -17 1z"/>
<path d="M2622 1110 c0 -14 2 -19 5 -12 2 6 2 18 0 25 -3 6 -5 1 -5 -13z"/>
<path d="M2490 1092 c0 -5 10 -17 22 -28 l21 -19 -18 28 c-18 28 -25 33 -25
19z"/>
<path d="M1720 1220 c0 -13 5 -18 15 -14 12 5 13 10 4 20 -15 19 -19 18 -19
-6z"/>
<path d="M1815 1150 c-19 -7 -19 -8 -2 -15 19 -8 31 -2 26 13 -2 5 -13 6 -24
2z"/>
<path d="M1866 1135 c-4 -12 -2 -13 14 -3 15 10 22 10 32 0 6 -6 19 -12 27
-12 11 0 10 4 -5 15 -25 19 -60 19 -68 0z"/>
<path d="M2035 1100 c-3 -5 -1 -10 4 -10 6 0 11 5 11 10 0 6 -2 10 -4 10 -3 0
-8 -4 -11 -10z"/>
<path d="M2110 1059 c0 -5 5 -7 10 -4 6 3 10 8 10 11 0 2 -4 4 -10 4 -5 0 -10
-5 -10 -11z"/>
<path d="M2271 1034 c0 -11 3 -14 6 -6 3 7 2 16 -1 19 -3 4 -6 -2 -5 -13z"/>
<path d="M2453 3410 c-1 -11 1 -20 5 -20 4 0 13 9 20 20 10 17 10 20 -6 20
-11 0 -18 -8 -19 -20z"/>
<path d="M2045 3410 c-3 -5 -1 -10 4 -10 6 0 11 5 11 10 0 6 -2 10 -4 10 -3 0
-8 -4 -11 -10z"/>
<path d="M2340 3412 c0 -5 7 -15 15 -22 8 -7 15 -9 15 -6 0 4 -7 14 -15 22 -8
9 -15 11 -15 6z"/>
<path d="M1922 3390 c-18 -29 -15 -38 4 -12 9 13 14 25 12 27 -2 2 -9 -5 -16
-15z"/>
<path d="M2520 3390 c0 -5 5 -10 11 -10 5 0 7 5 4 10 -3 6 -8 10 -11 10 -2 0
-4 -4 -4 -10z"/>
<path d="M1840 3375 c0 -8 7 -15 15 -15 8 0 15 4 15 9 0 5 -7 11 -15 15 -9 3
-15 0 -15 -9z"/>
<path d="M1880 3365 c0 -8 5 -15 10 -15 6 0 10 7 10 15 0 8 -4 15 -10 15 -5 0
-10 -7 -10 -15z"/>
<path d="M2760 3340 c0 -5 5 -10 10 -10 6 0 10 5 10 10 0 6 -4 10 -10 10 -5 0
-10 -4 -10 -10z"/>
<path d="M480 3261 c0 -5 7 -11 14 -14 10 -4 13 -1 9 9 -6 15 -23 19 -23 5z"/>
<path d="M2900 3260 c0 -6 7 -10 15 -10 8 0 15 2 15 4 0 2 -7 6 -15 10 -8 3
-15 1 -15 -4z"/>
<path d="M2936 3234 c-9 -23 -2 -28 13 -10 7 8 8 17 3 20 -6 3 -13 -1 -16 -10z"/>
<path d="M305 3181 c-74 -123 -173 -366 -161 -398 3 -7 2 -13 -3 -13 -15 0
-55 -187 -66 -315 -29 -324 6 -624 107 -935 39 -120 54 -151 72 -144 20 8 29
-12 15 -34 -9 -15 -4 -33 32 -105 23 -48 44 -85 46 -84 1 2 -22 89 -53 193
-67 229 -126 474 -148 609 -20 124 -37 295 -36 355 1 75 20 270 34 355 25 145
101 371 172 508 19 37 33 67 30 67 -2 0 -21 -27 -41 -59z"/>
<path d="M2994 3211 c-5 -5 -18 -11 -29 -14 l-20 -5 20 -1 c22 -1 52 15 44 23
-3 3 -10 2 -15 -3z"/>
<path d="M840 3203 c0 -9 105 -112 177 -173 25 -21 55 -36 75 -38 33 -4 33 -4
14 17 -11 12 -27 21 -38 21 -10 0 -18 5 -18 10 0 6 5 10 11 10 6 0 -8 16 -31
35 -23 19 -45 35 -48 35 -4 0 -21 14 -39 30 -18 17 -38 30 -45 30 -8 0 -24 7
-36 16 -12 8 -22 11 -22 7z"/>
<path d="M3010 3179 c0 -5 5 -7 10 -4 6 3 10 8 10 11 0 2 -4 4 -10 4 -5 0 -10
-5 -10 -11z"/>
<path d="M4210 3178 c0 -7 10 -49 21 -93 11 -44 27 -107 35 -140 34 -137 45
-167 59 -155 8 7 19 9 25 5 17 -11 11 -37 -10 -42 -24 -6 -24 -3 0 -106 46
-194 78 -431 81 -602 l1 -70 10 55 c16 99 12 394 -7 525 -9 66 -22 126 -28
133 -5 7 -7 15 -4 18 6 7 -33 154 -66 250 -51 144 -117 271 -117 222z"/>
<path d="M3590 3130 c0 -6 -4 -8 -10 -5 -13 8 -68 -22 -83 -45 -6 -11 -19 -20
-28 -20 -9 0 -24 -9 -34 -20 -10 -11 -23 -20 -30 -20 -6 0 -17 -11 -23 -25 -6
-14 -16 -25 -22 -25 -5 0 -10 -7 -10 -16 0 -8 4 -13 8 -10 5 3 29 -1 53 -8 25
-8 57 -12 72 -9 22 4 28 1 37 -22 12 -32 13 -115 2 -115 -5 0 -14 12 -21 26
-6 15 -14 25 -16 22 -4 -3 24 -139 30 -146 1 -1 9 0 18 4 13 4 14 11 6 31 -6
17 -6 37 0 57 5 17 13 59 16 94 l7 62 -29 2 c-15 1 -39 1 -52 0 -14 -1 -31 4
-38 10 -15 12 -18 42 -4 33 5 -3 16 2 24 10 9 8 19 15 24 15 4 0 25 15 45 34
20 18 50 40 67 47 36 16 38 24 11 39 -14 8 -20 8 -20 0z"/>
<path d="M1450 3112 c0 -12 19 -26 26 -19 2 2 -2 10 -11 17 -9 8 -15 8 -15 2z"/>
<path d="M3070 3092 c6 -13 14 -21 18 -18 3 4 -2 14 -12 24 -18 16 -18 16 -6
-6z"/>
<path d="M1430 3073 c0 -13 5 -23 10 -23 13 0 13 11 0 30 -8 12 -10 11 -10 -7z"/>
<path d="M833 3054 c-3 -8 -1 -20 5 -26 15 -15 43 8 35 28 -7 19 -32 18 -40
-2z"/>
<path d="M3192 2964 c10 -10 20 -15 24 -12 3 4 -5 12 -18 18 -22 12 -22 12 -6
-6z"/>
<path d="M962 2953 c2 -10 10 -18 18 -18 8 0 16 8 18 18 2 12 -3 17 -18 17
-15 0 -20 -5 -18 -17z"/>
<path d="M1305 2951 c-3 -5 -1 -12 5 -16 5 -3 10 -15 10 -26 0 -10 4 -19 9
-19 7 0 8 35 3 63 -3 10 -20 9 -27 -2z"/>
<path d="M3240 2940 c-13 -8 -12 -10 3 -10 9 0 17 5 17 10 0 12 -1 12 -20 0z"/>
<path d="M1286 2895 c4 -8 10 -12 15 -9 11 6 2 24 -11 24 -5 0 -7 -7 -4 -15z"/>
<path d="M1005 2790 c-17 -33 -19 -44 -6 -36 10 6 33 66 26 66 -3 0 -11 -13
-20 -30z"/>
<path d="M3291 2804 c0 -11 3 -14 6 -6 3 7 2 16 -1 19 -3 4 -6 -2 -5 -13z"/>
<path d="M3320 2790 c0 -5 5 -10 10 -10 6 0 10 5 10 10 0 6 -4 10 -10 10 -5 0
-10 -4 -10 -10z"/>
<path d="M1220 2773 c0 -8 5 -13 12 -11 18 6 21 25 3 25 -8 0 -15 -7 -15 -14z"/>
<path d="M3394 2760 c0 -13 4 -16 10 -10 7 7 7 13 0 20 -6 6 -10 3 -10 -10z"/>
<path d="M679 2727 c-42 -23 -83 -48 -93 -56 -16 -14 -23 -37 -8 -27 5 3 22
-8 38 -23 24 -23 31 -26 41 -15 10 10 7 15 -17 26 -17 7 -30 16 -30 20 0 4 25
15 55 23 30 9 54 21 52 28 -4 21 30 19 36 -3 3 -11 12 -20 21 -20 13 0 15 4 6
19 -5 11 -10 31 -10 45 0 14 -3 26 -7 25 -5 0 -42 -19 -84 -42z"/>
<path d="M3355 2750 c3 -5 10 -10 16 -10 5 0 9 5 9 10 0 6 -7 10 -16 10 -8 0
-12 -4 -9 -10z"/>
<path d="M1181 2734 c0 -11 3 -14 6 -6 3 7 2 16 -1 19 -3 4 -6 -2 -5 -13z"/>
<path d="M3350 2710 c0 -5 7 -7 15 -4 8 4 15 8 15 10 0 2 -7 4 -15 4 -8 0 -15
-4 -15 -10z"/>
<path d="M1170 2681 c0 -6 9 -9 19 -8 11 0 17 5 15 9 -7 11 -34 10 -34 -1z"/>
<path d="M1167 2643 c3 -7 8 -13 12 -13 8 0 37 19 31 21 -33 6 -47 4 -43 -8z"/>
<path d="M1140 2602 c0 -5 10 -17 23 -28 12 -10 17 -12 10 -5 -6 7 -9 20 -6
27 3 8 -1 14 -11 14 -9 0 -16 -4 -16 -8z"/>
<path d="M3410 2510 c0 -5 10 -10 23 -10 18 0 19 2 7 10 -19 13 -30 13 -30 0z"/>
<path d="M3461 2418 c-1 -21 -17 -24 -24 -5 -3 6 -6 0 -6 -15 -1 -16 3 -28 8
-28 16 0 33 29 28 47 -4 17 -5 17 -6 1z"/>
<path d="M3426 2334 c-5 -12 -2 -15 10 -10 8 3 18 6 20 6 3 0 2 5 -1 10 -9 15
-22 12 -29 -6z"/>
<path d="M3420 2160 c0 -5 5 -10 10 -10 6 0 10 5 10 10 0 6 -4 10 -10 10 -5 0
-10 -4 -10 -10z"/>
<path d="M3460 2160 c0 -5 5 -10 11 -10 5 0 7 5 4 10 -3 6 -8 10 -11 10 -2 0
-4 -4 -4 -10z"/>
<path d="M3438 2093 c7 -3 16 -2 19 1 4 3 -2 6 -13 5 -11 0 -14 -3 -6 -6z"/>
<path d="M3460 2070 c0 -5 5 -10 11 -10 5 0 7 5 4 10 -3 6 -8 10 -11 10 -2 0
-4 -4 -4 -10z"/>
<path d="M1111 2031 c-7 -5 -9 -11 -4 -14 5 -3 15 -2 22 2 7 5 9 11 4 14 -5 3
-15 2 -22 -2z"/>
<path d="M1108 1983 c7 -3 16 -2 19 1 4 3 -2 6 -13 5 -11 0 -14 -3 -6 -6z"/>
<path d="M3410 1970 c0 -5 5 -10 11 -10 5 0 7 5 4 10 -3 6 -8 10 -11 10 -2 0
-4 -4 -4 -10z"/>
<path d="M590 1938 c0 -16 5 -28 10 -28 13 0 13 20 0 40 -8 12 -10 9 -10 -12z"/>
<path d="M4411 1944 c0 -11 3 -14 6 -6 3 7 2 16 -1 19 -3 4 -6 -2 -5 -13z"/>
<path d="M3370 1869 c0 -15 36 -60 43 -53 3 3 -3 14 -14 25 -11 11 -17 24 -14
29 4 6 1 10 -4 10 -6 0 -11 -5 -11 -11z"/>
<path d="M1150 1859 c0 -5 5 -7 10 -4 6 3 10 8 10 11 0 2 -4 4 -10 4 -5 0 -10
-5 -10 -11z"/>
<path d="M1177 1756 c-3 -8 0 -17 7 -19 10 -4 12 1 9 14 -6 23 -9 24 -16 5z"/>
<path d="M1240 1676 c0 -2 7 -7 16 -10 8 -3 12 -2 9 4 -6 10 -25 14 -25 6z"/>
<path d="M3301 1654 c0 -11 3 -14 6 -6 3 7 2 16 -1 19 -3 4 -6 -2 -5 -13z"/>
<path d="M3236 1605 c-3 -8 -2 -15 2 -15 5 0 13 -10 18 -22 6 -13 9 -17 7 -10
-1 6 3 12 10 12 7 0 13 12 14 28 0 15 -1 19 -4 10 -2 -10 -8 -18 -13 -18 -5 0
-7 7 -4 15 4 9 0 15 -9 15 -8 0 -17 -7 -21 -15z"/>
<path d="M1299 1553 c-13 -16 -12 -17 4 -4 9 7 17 15 17 17 0 8 -8 3 -21 -13z"/>
<path d="M1367 1504 c-13 -13 -7 -24 12 -24 10 0 25 8 32 18 12 15 12 16 -2 5
-10 -8 -19 -9 -25 -3 -6 6 -13 7 -17 4z"/>
<path d="M3150 1469 c0 -5 5 -7 10 -4 6 3 10 8 10 11 0 2 -4 4 -10 4 -5 0 -10
-5 -10 -11z"/>
<path d="M1350 1451 c0 -5 9 -7 20 -4 11 3 20 7 20 9 0 2 -9 4 -20 4 -11 0
-20 -4 -20 -9z"/>
<path d="M1415 1430 c-3 -5 -1 -10 4 -10 6 0 11 5 11 10 0 6 -2 10 -4 10 -3 0
-8 -4 -11 -10z"/>
<path d="M3471 1247 c-13 -17 -2 -30 42 -46 35 -13 34 -2 -1 33 -24 22 -31 25
-41 13z"/>
<path d="M3051 1139 c-57 -37 -57 -36 -37 -58 10 -11 15 -28 13 -38 -3 -10 -8
-44 -12 -76 -3 -33 -10 -69 -15 -82 -5 -13 -6 -26 -3 -29 9 -9 43 61 43 88 0
50 23 75 35 37 3 -10 15 -21 25 -24 12 -3 20 -14 20 -27 0 -11 6 -20 13 -18
16 3 57 -20 57 -32 0 -6 -3 -9 -7 -9 -5 1 -33 1 -63 0 -47 -1 -52 -3 -35 -13
11 -6 41 -10 66 -9 43 2 49 -1 79 -36 l32 -38 -6 37 c-8 47 -45 113 -91 161
-19 20 -35 41 -35 46 0 5 -9 11 -20 14 -11 3 -20 12 -20 21 0 9 -4 16 -9 16
-18 0 -17 35 2 63 11 16 18 29 16 31 -2 2 -24 -9 -48 -25z m87 -168 c3 -8 -1
-12 -9 -9 -7 2 -15 10 -17 17 -3 8 1 12 9 9 7 -2 15 -10 17 -17z"/>
<path d="M2955 1071 c-16 -15 -169 -91 -185 -91 -8 0 -24 -7 -34 -15 -28 -21
-144 -58 -166 -52 -11 3 -21 -1 -24 -9 -3 -8 -1 -14 4 -14 11 0 18 -23 30 -95
5 -33 16 -62 26 -70 9 -6 14 -17 10 -24 -5 -7 5 -17 26 -27 42 -19 72 -37 90
-51 8 -7 33 -16 56 -21 34 -8 42 -7 42 4 0 8 4 14 9 14 12 0 21 54 10 61 -5 3
-11 40 -13 82 -2 42 -8 82 -14 89 -6 7 -17 32 -25 54 l-14 41 66 28 c96 42
142 72 135 90 -7 17 -16 19 -29 6z m-199 -183 c4 -24 8 -65 9 -93 1 -27 6 -61
12 -75 13 -33 23 -110 14 -110 -11 0 -46 40 -35 40 10 0 -31 21 -88 44 l-38
15 0 60 c0 46 -5 66 -20 83 -31 37 -28 42 35 59 97 27 102 25 111 -23z"/>
<path d="M4050 1013 c0 -5 -31 -44 -70 -87 -38 -42 -70 -85 -70 -96 0 -11 3
-20 6 -20 17 0 150 197 140 207 -3 3 -6 2 -6 -4z"/>
<path d="M630 762 c0 -19 209 -205 325 -289 113 -81 321 -201 331 -190 2 2
-17 18 -44 34 -26 17 -87 61 -135 97 -49 36 -93 66 -98 66 -5 0 -12 7 -15 15
-5 11 -10 13 -19 5 -14 -12 -31 3 -21 19 7 10 -109 107 -219 183 -98 67 -105
71 -105 60z"/>
<path d="M3592 548 c-7 -7 -12 -18 -12 -26 0 -7 -5 -12 -12 -10 -6 2 -61 -29
-122 -70 -194 -129 -467 -252 -736 -330 -58 -17 1 -14 83 3 359 78 591 181
742 332 31 31 63 69 71 85 15 29 7 37 -14 16z"/>
<path d="M2345 500 c3 -5 8 -10 11 -10 2 0 4 5 4 10 0 6 -5 10 -11 10 -5 0 -7
-4 -4 -10z"/>
<path d="M2648 93 c7 -3 16 -2 19 1 4 3 -2 6 -13 5 -11 0 -14 -3 -6 -6z"/>
</g>
</svg>
